<svg width="40" height="49" viewBox="0 0 40 49" fill="none" xmlns="http://www.w3.org/2000/svg">
<path d="M13.4057 35.4098L15.1447 38.8879C16.0732 40.7449 16.5532 42.783 16.5532 44.8525C16.5532 45.718 16.9073 46.5049 17.4739 47.0793C18.0483 47.6459 18.8352 48 19.7008 48C20.5663 48 21.3532 47.6459 21.9276 47.0793C22.4942 46.5049 22.8483 45.718 22.8483 44.8525C22.8483 42.783 23.3283 40.7449 24.2568 38.8879L25.9958 35.4098L26.3421 35.0636C24.4929 35.2761 22.2975 35.4098 19.7008 35.4098C17.104 35.4098 14.9086 35.2761 13.0594 35.0636L13.4057 35.4098Z" fill="#FFDFBA"/>
<path d="M10.2581 3.93443C4.35646 3.93443 3.96301 10.2295 3.96301 10.2295C3.96301 10.2295 7.504 16.5246 16.5532 16.5246C16.5532 15.3443 16.1597 3.93443 10.2581 3.93443Z" fill="#FFDFBA"/>
<path d="M29.1433 3.93443C23.2417 3.93443 22.8483 15.3443 22.8483 16.5246C31.8974 16.5246 35.4384 10.2295 35.4384 10.2295C35.4384 10.2295 35.045 3.93443 29.1433 3.93443Z" fill="#FFDFBA"/>
<path fill-rule="evenodd" clip-rule="evenodd" d="M38.0297 25.4109C38.3374 25.1032 38.8347 25.1032 39.1423 25.4109C39.45 25.7186 39.45 26.2159 39.1431 26.5235L37.3388 28.3279H38.5868C39.0219 28.3279 39.3737 28.6796 39.3737 29.1148C39.3737 29.5499 39.0219 29.9016 38.5868 29.9016H36.2261V32.2623C36.2261 32.6974 35.8744 33.0492 35.4393 33.0492C35.0041 33.0492 34.6524 32.6974 34.6524 32.2623V30.5681C33.3351 31.2535 30.895 32.1513 26.7119 32.6605L26.6427 32.7289L24.9611 36.0921C24.0932 37.8271 23.6352 39.7676 23.6352 41.7049C23.6352 42.746 23.2276 43.7335 22.4879 44.4842C21.7294 45.2317 20.7418 45.6393 19.7008 45.6393C18.6597 45.6393 17.6722 45.2317 16.9215 44.4921C16.174 43.7335 15.7663 42.746 15.7663 41.7049C15.7663 39.7676 15.3084 37.8271 14.4412 36.0921L12.7597 32.7289L12.692 32.6612C8.49867 32.1513 6.06562 31.2511 4.74995 30.5658V32.2623C4.74995 32.6974 4.39821 33.0492 3.96307 33.0492C3.52792 33.0492 3.17618 32.6974 3.17618 32.2623V29.9016H0.815524C0.380377 29.9016 0.0286391 29.5499 0.0286391 29.1148C0.0286391 28.6796 0.380377 28.3279 0.815524 28.3279H2.06352L0.259196 26.5235C-0.0484757 26.2159 -0.0484757 25.7186 0.259196 25.4109C0.566869 25.1032 1.06418 25.1032 1.37185 25.4109L4.51861 28.5584C4.51861 28.5584 4.51939 28.5584 4.52018 28.5592C4.53828 28.5765 6.52123 30.3722 13.1492 31.1347C13.1495 31.1347 13.1498 31.1348 13.1502 31.135C13.1507 31.1352 13.1514 31.1355 13.1523 31.1355C15.1227 31.3605 17.326 31.4754 19.7008 31.4754C22.0756 31.4754 24.2789 31.3605 26.2492 31.1347C26.2496 31.1347 26.2499 31.1346 26.2503 31.1344C26.2508 31.1342 26.2515 31.1339 26.2524 31.1339C32.8929 30.3698 34.8719 28.5679 34.8908 28.5498L38.0297 25.4109ZM22.0614 41.7049C22.0614 39.5245 22.5768 37.3409 23.5534 35.3886L24.8195 32.8548C23.2252 32.9839 21.5106 33.0492 19.7008 33.0492C17.8909 33.0492 16.1763 32.9839 14.5821 32.8548L15.8482 35.3886C16.8247 37.3409 17.3401 39.5245 17.3401 41.7049C17.3401 42.3305 17.5864 42.9254 18.0341 43.3794C18.9273 44.2584 20.4672 44.2662 21.3753 43.3715C21.8151 42.9254 22.0614 42.3305 22.0614 41.7049Z" fill="#014593"/>
<path fill-rule="evenodd" clip-rule="evenodd" d="M37.3395 12.5886C36.7855 13.1426 36.6612 13.9774 37.0318 14.6652C39.8456 19.893 39.8048 19.9216 39.1345 20.3913L39.1344 20.3913C39.1006 20.4157 38.9156 20.5361 38.6678 20.5361C38.4703 20.5361 38.2318 20.459 37.9974 20.1954C37.8447 20.0231 37.7817 19.8028 37.8038 19.5903C37.6023 19.1449 37.068 18.0527 35.6461 15.4104C34.9442 14.1065 35.1772 12.5256 36.2269 11.4759C36.9138 10.789 36.9138 9.67003 36.2269 8.98308L35.5533 8.30951C34.1991 10.1107 30.3244 14.1639 22.8482 14.1639H16.5532C9.07696 14.1639 5.20233 10.1107 3.8481 8.30951L3.2005 8.95712C2.4986 9.65823 2.4986 10.8 3.2005 11.5019C4.22974 12.5296 4.48312 14.0955 3.83315 15.3962L1.51971 20.0239C1.38122 20.3001 1.10345 20.459 0.814662 20.459C0.696629 20.459 0.576236 20.4323 0.463711 20.3772C0.0749901 20.1828 -0.082387 19.7099 0.111974 19.3212L2.42542 14.6935C2.77243 13.9995 2.6363 13.1638 2.08784 12.6153C0.77217 11.2997 0.77217 9.16013 2.08784 7.84446L3.20758 6.72472C3.47433 4.23344 5.21571 0 10.2581 0C14.7693 0 16.4052 5.49561 17.0001 9.44262H22.4013C22.9962 5.49561 24.6321 0 29.1433 0C34.1857 0 35.9271 4.23344 36.1938 6.72472L37.3395 7.87043C38.6402 9.17115 38.6402 11.2879 37.3395 12.5886ZM22.0865 12.5902C22.1062 12.1865 22.1416 11.6475 22.2046 11.0164H17.196C17.259 11.6475 17.2944 12.1865 17.3141 12.5902H22.0865ZM4.77112 6.89469C4.90017 5.82216 5.70201 1.57377 10.2581 1.57377C14.4065 1.57377 15.5892 9.01692 15.7474 12.5729C8.65204 12.262 5.42581 7.90584 4.77112 6.89469ZM29.1433 1.57377C24.9949 1.57377 23.813 9.01613 23.654 12.5729C30.6943 12.2573 33.9756 7.88223 34.6287 6.8939C34.4934 5.81508 33.6718 1.57377 29.1433 1.57377Z" fill="#014593"/>
</svg>
