<svg width="180" height="33" viewBox="0 0 180 33" fill="none" xmlns="http://www.w3.org/2000/svg">
<path fill-rule="evenodd" clip-rule="evenodd" d="M44.4545 32.0597C44.0031 31.6963 43.8386 31.2259 43.9673 30.6244C43.3498 30.8031 43.2222 31.3016 43.0591 31.8187C42.6799 31.3199 42.5903 30.8045 42.8123 30.2638C43.0446 29.6981 43.528 29.455 44.1115 29.4372C44.855 29.4145 45.5997 29.4191 46.3437 29.434C46.6345 29.4397 46.7142 29.35 46.6615 29.0635C46.4688 28.0178 45.8085 27.4562 44.567 27.2705C44.0515 27.1933 43.5362 27.1901 43.0189 27.1805C42.2728 27.1665 41.8971 26.7886 41.9027 26.0391C41.9138 24.5498 41.5989 23.1713 40.6047 22.0037C39.7283 20.9746 38.5891 20.4672 37.2747 20.3434C36.1378 20.2363 35.0198 20.3514 33.9636 20.8319C33.7964 20.9079 33.722 20.9165 33.6784 20.6888C33.4841 19.6744 33.1363 19.4288 32.1516 19.5671C32.2172 19.0727 32.4018 18.8986 33.2039 18.5872C33.0102 18.2468 32.6987 18.2042 32.3822 18.2911C32.0468 18.383 32.077 18.2487 32.1604 18.0249C32.2889 17.6796 32.6089 17.5011 32.9906 17.5765C33.1287 17.6037 33.2628 17.65 33.4149 17.6921C33.2606 17.1657 32.9258 17.0407 32.1107 17.1981C32.1328 16.8398 32.3476 16.649 32.6335 16.5269C33.5306 16.1438 34.4237 16.7939 34.4752 17.8684C34.4904 18.1867 34.4957 18.5074 34.4745 18.8248C34.4521 19.1625 34.519 19.278 34.8865 19.1407C36.5639 18.5142 38.2497 17.9101 39.9326 17.2981C40.0822 17.2437 40.2377 17.202 40.3806 17.1337C40.5879 17.0348 40.7343 17.0677 40.9078 17.2343C41.4245 17.7308 42.1295 17.7301 42.6241 17.2619C43.1165 16.7957 43.1731 16.0713 42.7079 15.54C42.366 15.1494 42.3302 14.7753 42.5097 14.2983C43.1042 12.7188 43.7098 11.1464 44.6235 9.71601C44.9457 9.21168 45.3213 8.74723 45.7497 8.32604C45.955 8.12434 46.0536 8.14883 46.1357 8.43176C46.4861 9.6395 46.3002 10.7627 45.6587 11.8322C45.1757 12.6376 44.5114 13.291 43.9004 13.9897C43.7081 14.2095 43.5218 14.4356 43.3155 14.6417C43.1209 14.8362 43.1851 15.0046 43.3471 15.1538C43.5269 15.3195 43.5994 15.1017 43.6845 15.0186C44.7107 14.0159 45.7302 13.0063 46.9407 12.2185C47.4643 11.8778 48.0142 11.5936 48.6677 11.4133C48.5995 12.5283 48.1728 13.4134 47.3427 14.102C46.4057 14.8792 45.2504 15.2402 44.1778 15.759C44.0945 15.7993 44.0036 15.8278 43.9281 15.8793C43.7824 15.9791 43.7801 16.1374 43.8376 16.2737C43.9052 16.4341 44.0424 16.3436 44.1458 16.3042C45.0012 15.9783 45.8578 15.6587 46.7489 15.4384C47.4104 15.2749 48.0773 15.1999 48.7591 15.2216C49.0619 15.2311 49.1476 15.2842 48.9616 15.5785C48.4238 16.4297 47.6239 16.8312 46.6645 16.9874C45.8456 17.1208 45.021 17.0438 44.199 17.0669C44.0941 17.0698 43.9816 17.0647 43.887 17.1011C43.7821 17.1413 43.7303 17.2554 43.75 17.3648C43.7773 17.5165 43.9172 17.4617 44.0116 17.4681C44.8843 17.5279 45.7565 17.59 46.6118 17.7886C46.9749 17.8728 47.3185 18.0139 47.66 18.1613C47.9484 18.2858 47.9203 18.4104 47.6799 18.5607C46.9598 19.011 46.1896 19.0142 45.418 18.7659C44.9022 18.6 44.4118 18.3554 43.9102 18.1453C43.8245 18.1094 43.7428 18.062 43.6548 18.0345C43.5211 17.9927 43.3737 17.9839 43.3023 18.1272C43.2034 18.3255 43.4101 18.3376 43.5075 18.3898C44.3043 18.8166 45.1062 19.2345 45.7386 19.9028C45.8454 20.0156 45.9797 20.1137 46.0038 20.3086C45.231 20.5624 44.5993 20.2736 44.0369 19.7892C43.7266 19.5219 43.4633 19.1997 43.18 18.901C43.107 18.824 43.0407 18.7407 42.9675 18.664C42.8678 18.5595 42.754 18.5611 42.6462 18.6452C42.5028 18.7569 42.6516 18.8322 42.7 18.8979C42.9988 19.304 43.3261 19.6901 43.5743 20.1314C43.691 20.3392 43.8007 20.5527 43.8907 20.773C43.9532 20.9256 44.1002 21.1466 43.9854 21.2436C43.8248 21.3794 43.6134 21.2132 43.444 21.1205C42.9208 20.8343 42.6574 20.3472 42.4653 19.8116C42.3758 19.5619 42.3005 19.3072 42.2156 19.0559C42.163 18.9001 42.0559 18.7994 41.8867 18.833C41.6809 18.8738 41.7766 19.0329 41.7849 19.1548C41.8584 20.2362 42.1899 21.2031 42.9976 21.9717C43.7815 22.7181 44.7347 23.0864 45.7861 23.1985C46.3888 23.2628 47.0037 23.2987 47.6026 23.1286C47.7423 23.0889 47.8815 23.0397 48.0116 22.9759C48.2357 22.8664 48.4412 22.703 48.4156 22.4371C48.3923 22.1954 48.1829 22.0631 47.9558 21.9915C46.9331 21.6694 45.9514 21.8671 45.0214 22.3039C44.6379 22.484 44.3522 22.4613 44.0093 22.1998C44.3857 21.9128 44.8208 21.7723 45.244 21.6215C46.1195 21.3097 47.0187 21.1702 47.941 21.3845C48.6823 21.5568 49.0321 21.9573 49.0142 22.5562C49.0011 22.9964 48.7371 23.2601 48.3952 23.4662C47.9767 23.7183 47.511 23.8272 47.0283 23.8427C46.4708 23.8606 45.9121 23.8648 45.3543 23.853C45.1036 23.8476 44.9867 23.9102 45.0074 24.1841C45.0283 24.4616 45.0058 24.742 45.0139 25.0209C45.0277 25.4943 45.2889 25.7561 45.7591 25.7646C46.1709 25.7718 46.5837 25.7809 46.9947 25.7616C47.2632 25.7491 47.3285 25.8516 47.3304 26.1065C47.3385 27.1649 47.5214 28.19 47.9807 29.1545C48.2048 29.6252 48.5302 30.0234 48.9521 30.4705C48.5242 30.4705 48.1745 30.4788 47.8255 30.4681C47.5047 30.4583 47.1886 30.4884 46.8762 30.5521C46.3113 30.6677 46.0214 30.972 45.9656 31.5523C45.9366 31.8537 45.8409 31.8555 45.6273 31.7024C45.4125 31.5486 45.2484 31.3479 45.1913 31.1025C45.1019 30.7176 44.9448 30.8711 44.8084 31.0393C44.5695 31.3336 44.5785 31.7064 44.5342 32.0597H44.4545Z" fill="#FFDFBA"/>
<path fill-rule="evenodd" clip-rule="evenodd" d="M27.6781 24.7166C27.6781 24.0921 27.6794 23.4677 27.6767 22.8432C27.6763 22.7413 27.7191 22.6072 27.6068 22.5501C27.2313 22.3592 26.8359 22.3656 26.4469 22.4987C26.1328 22.6063 26.3143 22.8847 26.2809 23.0851C26.2549 23.2402 26.2757 23.4031 26.2757 23.5625C26.2757 24.1308 26.2757 24.1308 25.7132 24.1307C25.1737 24.1305 25.1737 24.1305 25.1736 23.6052C25.1735 23.4325 25.1736 23.2598 25.1736 23.0871C25.1736 22.4807 25.1101 22.4138 24.4989 22.415C24.3547 22.4153 24.2105 22.4473 24.0662 22.4646C23.8605 22.4894 23.7735 22.5925 23.7834 22.8112C23.7999 23.1691 23.7861 23.5284 23.7883 23.8871C23.7891 24.0175 23.7703 24.1036 23.6065 24.1331C22.8311 24.2723 22.6841 24.1616 22.6841 23.4045V23.0856C22.6841 22.4825 22.6198 22.4174 22.0084 22.4136C21.9026 22.4129 21.7962 22.4214 21.6909 22.4327C21.3972 22.4641 21.2689 22.595 21.2776 22.9241C21.3026 23.8801 21.2865 24.837 21.2865 25.7935C21.2865 26.8965 21.2863 26.8902 22.3928 26.868C22.611 26.8636 22.7016 26.8169 22.6889 26.5819C22.6702 26.2375 22.7014 25.8902 22.6797 25.5461C22.6532 25.1232 22.9697 25.1459 23.2137 25.1445C23.4696 25.1429 23.8077 25.1005 23.7905 25.5448C23.7771 25.8897 23.801 26.2362 23.7834 26.5807C23.7713 26.8158 23.863 26.8797 24.0826 26.8663C24.3473 26.8503 24.6145 26.8501 24.8792 26.8663C25.1002 26.8799 25.1891 26.8128 25.178 26.5792C25.161 26.2213 25.1709 25.8619 25.1746 25.5033C25.1788 25.0909 25.5115 25.1425 25.7511 25.1451C25.9765 25.1476 26.2899 25.1115 26.2778 25.5109C26.2671 25.8693 26.2843 26.2285 26.2723 26.5868C26.2657 26.7841 26.3128 26.8795 26.5341 26.8667C26.8253 26.8497 27.1189 26.8512 27.4105 26.8663C27.6243 26.8774 27.6846 26.7933 27.6815 26.5898C27.6719 25.9655 27.678 25.341 27.6781 24.7166ZM24.3589 32.0597C24.3177 31.8921 24.1512 31.8758 24.0363 31.8055C21.8372 30.4572 19.9658 28.7887 18.7659 26.4557C17.8083 24.5938 17.3743 22.5995 17.2509 20.5253C17.2473 20.465 17.2568 20.4038 17.2617 20.3134C18.8284 21.3253 20.4391 21.1486 22.0596 20.6022C23.6776 20.0567 25.2885 20.0409 26.8998 20.6063C28.0501 21.01 29.2181 21.162 30.4218 20.8986C30.877 20.799 31.2827 20.5858 31.7156 20.2637C31.6977 21.3412 31.5403 22.3157 31.3318 23.284C30.5414 26.9547 28.3953 29.6339 25.2621 31.595C25.0342 31.7377 24.7638 31.8259 24.5981 32.0597H24.3589Z" fill="white"/>
<path fill-rule="evenodd" clip-rule="evenodd" d="M179.939 17.9439C179.821 17.9364 179.697 17.9038 179.584 17.9256C178.858 18.0657 178.442 17.794 178.216 17.072C178.036 16.4951 177.706 15.9664 177.467 15.4058C177.372 15.1846 177.245 15.1178 177.015 15.1253C176.524 15.1415 176.032 15.1439 175.541 15.1248C175.281 15.1147 175.204 15.1946 175.206 15.4569C175.219 16.7589 175.212 18.0613 175.212 19.3635C175.212 21.4231 175.218 23.4828 175.206 25.5424C175.204 25.8317 175.273 25.9646 175.577 26.0183C176.032 26.099 176.477 26.2419 176.927 26.3517C177.086 26.3903 177.163 26.4483 177.173 26.6398C177.226 27.6767 177.234 27.6763 176.198 27.6763C174.099 27.6763 171.999 27.6691 169.9 27.684C169.582 27.6863 169.501 27.5975 169.508 27.287C169.525 26.4262 169.513 26.4361 170.33 26.2133C170.711 26.1094 171.236 26.1539 171.432 25.8618C171.612 25.5935 171.488 25.1177 171.488 24.7332C171.489 21.6637 171.485 18.5941 171.495 15.5247C171.496 15.2301 171.447 15.0997 171.113 15.1222C170.637 15.1541 170.157 15.1418 169.679 15.1253C169.448 15.1174 169.327 15.1897 169.231 15.4077C168.906 16.1478 168.548 16.8738 168.219 17.6123C168.121 17.8317 168.007 17.9303 167.749 17.9288C166.758 17.923 166.758 17.9337 166.758 16.9353C166.758 15.9254 166.773 14.9152 166.75 13.9059C166.742 13.5777 166.853 13.5164 167.154 13.5171C171.259 13.5259 175.365 13.5236 179.471 13.521C179.627 13.5208 179.79 13.5622 179.939 13.4778V17.9439Z" fill="white"/>
<mask id="mask0" mask-type="alpha" maskUnits="userSpaceOnUse" x="0" y="13" width="17" height="20">
<path fill-rule="evenodd" clip-rule="evenodd" d="M0 13.3888H16.8609V32.0597H0V13.3888Z" fill="white"/>
</mask>
<g mask="url(#mask0)">
<path fill-rule="evenodd" clip-rule="evenodd" d="M4.42301 32.0597C4.41032 31.7123 4.37114 31.3699 4.17918 31.0686C4.12372 30.9815 4.0484 30.8832 3.93287 30.8852C3.78686 30.8879 3.80824 31.0307 3.77106 31.1228C3.66981 31.3746 3.52388 31.5859 3.28644 31.7365C3.11218 31.8471 3.06335 31.7781 3.0158 31.6174C2.75019 30.7201 2.44795 30.4931 1.48045 30.4728C1.0196 30.4632 0.558351 30.4712 0 30.4712C0.662713 29.829 1.06763 29.1272 1.30261 28.3306C1.51364 27.6149 1.64872 26.8839 1.62806 26.1362C1.6196 25.8307 1.72229 25.7438 2.01566 25.7609C2.41308 25.784 2.8129 25.7723 3.21144 25.7644C3.66399 25.7553 3.93359 25.4944 3.94524 25.054C3.95314 24.7486 4.02822 24.4076 3.91939 24.1466C3.79516 23.8488 3.39199 23.9615 3.11609 23.8811C1.21045 23.326 0.533697 21.0771 1.78835 19.4351C2.16072 18.9478 2.59476 18.5173 3.05553 18.1146C3.5183 17.7101 3.9466 17.2742 4.25705 16.7414C4.72676 15.9352 4.5766 15.0006 3.90574 14.4259C3.3 13.9071 2.29412 13.9144 1.61593 14.4424C0.939415 14.9694 0.905106 16.0793 1.56016 16.5626C1.83191 16.7631 2.13734 16.828 2.45697 16.6577C2.66529 16.5467 2.71005 16.3575 2.67718 16.147C2.62301 15.8001 2.3716 15.6538 2.05995 15.6328C1.71934 15.6098 1.7708 15.4437 1.87588 15.2386C2.09912 14.8031 2.65755 14.6103 3.15199 14.7945C3.63487 14.9743 3.89282 15.5255 3.75263 16.0774C3.57024 16.7955 2.85391 17.331 2.12609 17.2933C1.28098 17.2495 0.659122 16.7308 0.51391 15.9572C0.379628 15.2426 0.570479 14.621 1.05104 14.0751C0.842074 13.9345 0.604069 13.8594 0.449601 13.6696C0.36383 13.5641 0.260585 13.4055 0.515027 13.4082C1.43051 13.4179 2.34862 13.3364 3.26114 13.4496C4.9883 13.6638 5.78649 15.4312 5.0266 16.9838C4.74239 17.5645 4.3275 18.0485 3.88364 18.5069C3.69519 18.7016 3.66543 18.8001 3.95537 18.905C4.27372 19.0203 4.53423 19.2191 4.64793 19.5956C4.31832 19.6465 4.01601 19.4979 3.70157 19.553C2.64774 19.7378 2.0625 20.5802 2.28582 21.6145C2.48489 22.5362 3.44793 23.0907 4.41798 22.8506C5.11532 22.678 5.56532 22.2136 5.90362 21.6156C6.44561 20.6575 6.60734 19.5948 6.73293 18.5251C6.79795 17.9715 6.85021 17.414 6.81535 16.8566C6.79508 16.5314 6.90926 16.5144 7.17447 16.6125C8.96641 17.2746 10.7619 17.9273 12.5566 18.582C13.0801 18.773 13.6101 18.947 14.1269 19.1544C14.4322 19.277 14.4893 19.1735 14.4852 18.8874C14.4784 18.4108 14.4446 17.9318 14.5514 17.4586C14.735 16.6453 15.5922 16.1972 16.3441 16.5338C16.6192 16.657 16.8251 16.8451 16.8464 17.1821C15.9836 17.0612 15.7547 17.1457 15.5296 17.6856C15.6983 17.6483 15.8479 17.6126 15.9986 17.5823C16.2682 17.5279 16.5002 17.6048 16.6808 17.8084C16.7969 17.9393 16.9164 18.1107 16.833 18.2745C16.755 18.4278 16.5981 18.2638 16.4743 18.2611C16.1837 18.2549 15.921 18.287 15.7465 18.6044C16.2701 18.7529 16.7197 18.9701 16.8436 19.5633C15.7961 19.4556 15.4798 19.6769 15.281 20.6833C15.2383 20.8995 15.1761 20.9133 14.9991 20.834C14.0331 20.4018 13.0172 20.2873 11.9663 20.323C9.60136 20.4036 7.67082 22.0244 7.21532 24.3408C7.10226 24.9156 7.04824 25.4935 7.05511 26.0803C7.06324 26.7756 6.67915 27.1679 5.97965 27.1778C5.3021 27.1874 4.62455 27.1845 3.96431 27.3642C3.06056 27.6102 2.41739 28.0997 2.29827 29.1087C2.26755 29.3686 2.33481 29.4355 2.58144 29.4324C3.32553 29.4228 4.07027 29.4159 4.81404 29.4346C5.99896 29.4645 6.62689 30.567 6.06566 31.6117C6.0284 31.681 5.98915 31.7536 5.88806 31.7747C5.73742 31.3014 5.60952 30.8037 4.99891 30.6268C5.13191 31.2312 4.95782 31.6984 4.50271 32.0597H4.42301Z" fill="#FFDFBA"/>
</g>
<path fill-rule="evenodd" clip-rule="evenodd" d="M23.8805 3.98936e-05C23.9172 0.111822 23.9613 0.221769 23.9891 0.335705C24.0674 0.65629 24.2375 0.693391 24.5101 0.538843C24.6212 0.475891 24.7475 0.334588 24.9006 0.471902C25.0769 0.63004 25.0187 0.853683 24.7431 0.938737C24.3942 1.04637 24.2995 1.2077 24.5024 1.53068C24.5853 1.66241 24.6331 1.81991 24.6763 1.97158C24.7103 2.09118 24.6919 2.21733 24.5581 2.27541C24.4195 2.33565 24.3328 2.25499 24.2713 2.13993C24.234 2.06996 24.2016 1.99735 24.168 1.92555C23.9165 1.39073 23.9133 1.3798 23.363 1.54576C23.1828 1.60009 23.1276 1.52852 23.0638 1.3952C22.9959 1.25366 23.0393 1.17004 23.1748 1.11523C23.2116 1.10039 23.2449 1.07477 23.2827 1.06512C23.6264 0.977434 23.7421 0.800864 23.5344 0.473019C23.4186 0.290146 23.4528 0.123152 23.6413 3.98936e-05H23.8805Z" fill="#FFDFBA"/>
<path fill-rule="evenodd" clip-rule="evenodd" d="M62.5539 17.3743V18.6885C62.5539 19.6441 62.5539 19.644 63.518 19.6047C65.2058 19.5358 66.0685 18.4442 65.761 16.7766C65.6101 15.9578 65.1181 15.4645 64.3342 15.2399C63.8414 15.0987 63.3337 15.1477 62.8311 15.1254C62.5931 15.1149 62.5456 15.2075 62.5495 15.4231C62.5617 16.0732 62.554 16.7239 62.5539 17.3743ZM62.5539 23.6174C62.5539 24.3333 62.5619 25.0492 62.5492 25.765C62.5453 25.9918 62.5801 26.1034 62.8457 26.0844C63.2018 26.0589 63.5613 26.0838 63.919 26.0753C65.2725 26.0427 66.0539 25.3615 66.1915 24.0188C66.3489 22.4827 65.6694 21.174 63.7592 21.1913C63.4676 21.1939 63.1749 21.2065 62.8847 21.1867C62.6331 21.1695 62.5396 21.2378 62.5473 21.5095C62.5671 22.2117 62.5539 22.9147 62.5539 23.6174ZM65.8358 20.2314C66.5474 20.3115 67.2331 20.4436 67.8809 20.7329C69.7032 21.5468 70.4902 23.1536 69.9743 25.0183C69.751 25.8256 69.2666 26.4357 68.5551 26.8647C67.6453 27.4132 66.6415 27.658 65.593 27.6658C62.9233 27.6858 60.2534 27.6714 57.5836 27.682C57.3365 27.6829 57.2748 27.6156 57.2733 27.3718C57.268 26.4281 57.2586 26.4282 58.1805 26.1339C58.8376 25.9243 58.8376 25.9243 58.8376 25.2228C58.8376 22.0479 58.8325 18.8731 58.8455 15.6982C58.8469 15.3789 58.7769 15.1945 58.4454 15.1529C58.3548 15.1416 58.268 15.1002 58.1796 15.0724C57.2563 14.7828 57.266 14.7829 57.2732 13.831C57.2752 13.585 57.3416 13.5148 57.5871 13.5177C58.6495 13.5303 59.7123 13.5203 60.7749 13.5237C62.2225 13.5283 63.6703 13.5258 65.1178 13.5492C66.0568 13.5643 66.9602 13.7664 67.7989 14.2055C68.8091 14.7343 69.3758 15.5501 69.4189 16.7107C69.4638 17.9215 68.9322 18.7985 67.9007 19.3969C67.3093 19.7401 66.6637 19.9351 66.0032 20.0896C65.9435 20.1036 65.867 20.0914 65.8358 20.2314Z" fill="white"/>
<path fill-rule="evenodd" clip-rule="evenodd" d="M94.8901 20.5977V25.1804C94.8901 26.0783 94.8901 26.0783 95.8001 26.0782C97.7042 26.078 98.945 25.2725 99.6297 23.4872C100.343 21.6281 100.369 19.7194 99.768 17.8274C99.3582 16.5373 98.5115 15.6289 97.1645 15.2606C96.5401 15.0899 95.8989 15.1513 95.2636 15.1239C94.9678 15.111 94.8802 15.1936 94.8828 15.4971C94.8978 17.1972 94.8901 18.8974 94.8901 20.5977ZM93.8705 13.5577C95.1457 13.5577 96.4243 13.4985 97.6954 13.5714C99.6924 13.6856 101.455 14.3839 102.745 15.9911C103.852 17.3713 104.114 19.013 104.067 20.7198C104.023 22.3761 103.614 23.9238 102.532 25.2301C101.212 26.8229 99.4643 27.5932 97.4418 27.6493C94.9193 27.7193 92.3936 27.6705 89.8693 27.68C89.6623 27.6807 89.6035 27.6197 89.5967 27.4105C89.5653 26.4367 89.5581 26.4369 90.4735 26.1483C91.1842 25.9244 91.1842 25.9244 91.1842 25.1638C91.1842 22.0014 91.1789 18.839 91.1925 15.6767C91.1939 15.3687 91.1092 15.2118 90.8123 15.1594C90.6957 15.1387 90.5827 15.0955 90.4689 15.0596C89.5699 14.7755 89.5811 14.7754 89.5952 13.8265C89.5991 13.5649 89.6962 13.5219 89.9245 13.5234C91.2398 13.5318 92.5551 13.5276 93.8705 13.5276V13.5577Z" fill="white"/>
<path fill-rule="evenodd" clip-rule="evenodd" d="M22.5308 15.7142C22.5308 15.807 22.529 15.9 22.5312 15.9928C22.5393 16.3355 22.4158 16.8047 22.5911 16.9891C22.8166 17.2264 23.2916 17.0338 23.6564 17.0715C23.8935 17.0959 23.9504 16.9924 23.9409 16.7749C23.9258 16.4305 23.9365 16.0848 23.9373 15.7397C23.9376 15.6213 23.9207 15.4941 24.0678 15.4389C24.3392 15.3371 24.6171 15.3255 24.8821 15.4375C25.1339 15.5439 25.0203 15.7861 25.022 15.967C25.0325 17.121 25.0274 17.114 26.1721 17.0752C26.3884 17.0677 26.439 17.0002 26.4335 16.799C26.4207 16.3347 26.4383 15.8697 26.4265 15.4054C26.418 15.0647 26.5722 14.6278 26.3577 14.4136C26.1945 14.2508 25.7568 14.3629 25.4413 14.3527C25.428 14.3523 25.4146 14.3513 25.4015 14.3528C25.2303 14.3723 25.1665 14.2985 25.171 14.1254C25.1803 13.7673 25.1771 13.4086 25.1714 13.0502C25.1697 12.9512 25.2215 12.8198 25.1006 12.7619C24.7218 12.5807 24.325 12.5859 23.9394 12.723C23.6541 12.8245 23.8194 13.0902 23.7933 13.2807C23.7682 13.4631 23.7676 13.6544 23.7921 13.837C23.8452 14.2339 23.7267 14.4301 23.2909 14.3573C23.1231 14.3293 22.9458 14.3634 22.7743 14.3501C22.5819 14.3353 22.5209 14.4094 22.5273 14.5991C22.5397 14.9705 22.531 15.3424 22.5308 15.7142ZM24.4773 11.2473C26.7891 11.2473 29.101 11.2537 31.4128 11.2394C31.7193 11.2375 31.7813 11.3251 31.7797 11.616C31.7671 13.8216 31.769 16.0275 31.7781 18.2331C31.7791 18.473 31.7038 18.6226 31.5095 18.7578C30.9094 19.1757 30.2341 19.3382 29.5207 19.3678C28.6219 19.4053 27.75 19.2561 26.9019 18.9554C25.2914 18.3846 23.6797 18.3892 22.0662 18.9511C20.8913 19.3603 19.6953 19.5218 18.4664 19.2223C18.3506 19.1941 18.2359 19.159 18.1246 19.1165C17.2869 18.7962 17.1873 18.6507 17.1873 17.7624C17.1873 15.7426 17.2002 13.7227 17.1763 11.7032C17.1715 11.3018 17.2928 11.2354 17.6613 11.2382C19.9331 11.256 22.2053 11.2473 24.4773 11.2473Z" fill="white"/>
<path fill-rule="evenodd" clip-rule="evenodd" d="M143.999 27.6763C142.046 27.6763 140.093 27.6695 138.139 27.6836C137.841 27.6857 137.759 27.6107 137.764 27.3101C137.779 26.4237 137.765 26.4234 138.624 26.1526C139.352 25.9235 139.352 25.9235 139.352 25.1409C139.352 21.9785 139.348 18.8159 139.359 15.6535C139.36 15.3641 139.282 15.2238 138.997 15.1602C138.688 15.091 138.392 14.96 138.083 14.8886C137.822 14.8283 137.764 14.6891 137.766 14.4379C137.772 13.5231 137.763 13.523 138.672 13.523C142.246 13.523 145.821 13.5293 149.395 13.5138C149.771 13.5122 149.854 13.6226 149.847 13.978C149.826 15.1736 149.831 16.3698 149.845 17.5655C149.848 17.8383 149.767 17.8962 149.494 17.9355C148.75 18.0427 148.325 17.7898 148.099 17.0516C147.925 16.4867 147.602 15.969 147.362 15.4227C147.272 15.217 147.169 15.1208 146.925 15.1238C145.742 15.1382 144.56 15.1369 143.377 15.1249C143.132 15.1224 143.061 15.1926 143.063 15.4382C143.074 16.767 143.075 18.0959 143.063 19.4245C143.06 19.6865 143.148 19.7342 143.386 19.7063C144.533 19.5722 145.684 19.4645 146.829 19.3191C147.189 19.2734 147.321 19.3401 147.296 19.7302C147.261 20.2727 147.271 20.8199 147.294 21.3638C147.306 21.6584 147.204 21.7233 146.931 21.6904C145.824 21.5571 144.714 21.4424 143.607 21.3145C143.068 21.2522 143.068 21.2459 143.068 21.7927C143.068 23.0949 143.08 24.3972 143.06 25.6992C143.055 26.0234 143.158 26.0889 143.459 26.085C144.708 26.0688 145.957 26.0727 147.206 26.0833C147.434 26.0852 147.556 26.0232 147.654 25.8053C148.005 25.0188 148.393 24.2483 148.742 23.4608C148.854 23.2089 148.98 23.1049 149.269 23.1102C150.229 23.1275 150.229 23.114 150.229 24.0872C150.229 25.1635 150.217 26.24 150.237 27.3159C150.243 27.6238 150.149 27.6852 149.858 27.6832C147.905 27.6699 145.952 27.6763 143.999 27.6763Z" fill="white"/>
<path fill-rule="evenodd" clip-rule="evenodd" d="M127.933 17.6973C127.933 18.44 127.952 19.1833 127.925 19.925C127.913 20.2542 128.027 20.3394 128.329 20.3101C128.672 20.2767 129.019 20.29 129.361 20.2523C130.356 20.1429 131.042 19.5492 131.278 18.6099C131.408 18.0885 131.423 17.5558 131.351 17.0292C131.184 15.8092 130.513 15.2075 129.28 15.1448C128.949 15.128 128.616 15.1501 128.286 15.1254C128.016 15.1052 127.918 15.1807 127.926 15.4695C127.947 16.2116 127.933 16.9546 127.933 17.6973ZM124.211 20.6058C124.211 18.9718 124.199 17.3375 124.221 15.7039C124.226 15.3543 124.112 15.1999 123.789 15.1451C123.66 15.1233 123.536 15.0686 123.411 15.0236C123.165 14.935 122.778 14.9474 122.704 14.741C122.59 14.4216 122.653 14.0368 122.653 13.6797C122.653 13.4623 122.832 13.5262 122.95 13.5255C123.813 13.5209 124.677 13.5199 125.54 13.5237C127.28 13.5316 129.02 13.5337 130.76 13.5587C131.399 13.5678 132.022 13.7107 132.625 13.9317C134.492 14.6169 135.453 16.23 135.167 18.1982C134.9 20.0284 133.738 21.2237 131.777 21.6881C130.64 21.9575 129.482 21.9131 128.328 21.9023C128.03 21.8995 127.918 21.9578 127.925 22.2869C127.948 23.3758 127.946 24.4657 127.925 25.5547C127.92 25.8616 128.022 25.9625 128.311 26.0125C128.82 26.1006 129.319 26.2428 129.825 26.3506C130.015 26.3912 130.104 26.4551 130.107 26.6809C130.12 27.6764 130.13 27.6763 129.134 27.6763C127.088 27.6763 125.043 27.671 122.997 27.6825C122.722 27.6841 122.639 27.6156 122.641 27.3333C122.649 26.4245 122.636 26.4244 123.513 26.1469C124.211 25.9262 124.211 25.9262 124.211 25.189V20.6058Z" fill="white"/>
<path fill-rule="evenodd" clip-rule="evenodd" d="M83.7128 19.4229C83.7128 18.2138 83.7047 17.0046 83.719 15.7956C83.7221 15.529 83.6513 15.3903 83.3869 15.3071C82.9831 15.18 82.5988 14.9914 82.1958 14.8612C81.9601 14.7851 81.9051 14.6572 81.9054 14.4265C81.9066 13.5231 81.8991 13.5231 82.7821 13.5231C84.0977 13.5231 85.4134 13.5326 86.7287 13.5159C87.0327 13.5121 87.0711 13.6133 87.1104 13.8954C87.1997 14.537 86.9908 14.9311 86.3553 15.0807C85.7115 15.2323 85.5388 15.6235 85.5487 16.2818C85.579 18.3008 85.5259 20.321 85.5054 22.3407C85.4991 22.9528 85.4672 23.5634 85.3252 24.1608C84.847 26.1717 83.2541 27.5343 81.0537 27.8284C79.9228 27.9796 78.7986 27.9651 77.6956 27.654C75.3528 26.9933 74.0703 25.1915 74.055 22.5282C74.0421 20.2557 74.044 17.983 74.0612 15.7106C74.0638 15.3709 73.9708 15.1932 73.6379 15.1436C73.5604 15.1321 73.487 15.0942 73.4115 15.0692C72.4934 14.765 72.4989 14.7653 72.5565 13.7749C72.5674 13.5887 72.6185 13.5199 72.8097 13.5203C74.9359 13.5251 77.0621 13.5232 79.1883 13.5239C79.2662 13.5239 79.3906 13.5089 79.3983 13.5902C79.4241 13.8668 79.3915 14.1503 79.4314 14.4239C79.492 14.8391 79.1948 14.8502 78.9328 14.9305C78.5552 15.0462 78.0603 15.0733 77.8412 15.3306C77.6154 15.5956 77.7783 16.0948 77.7771 16.4912C77.7714 18.551 77.7756 20.611 77.7736 22.6708C77.7733 23.097 77.7859 23.5212 77.8884 23.9371C78.2677 25.475 79.6487 26.2939 81.3025 25.963C82.7446 25.6745 83.6957 24.581 83.7689 23.09C83.7987 22.4803 83.7743 21.8679 83.7744 21.2567C83.7745 20.6454 83.7744 20.0341 83.7744 19.4229H83.7128Z" fill="white"/>
<path fill-rule="evenodd" clip-rule="evenodd" d="M113.764 21.8688C113.116 20.2014 112.513 18.574 111.938 16.9033C111.869 16.9673 111.855 16.9743 111.851 16.9851C111.295 18.5425 110.74 20.1004 110.183 21.6574C110.107 21.8697 110.236 21.8696 110.383 21.8695C111.484 21.8681 112.585 21.8688 113.764 21.8688ZM117.06 27.6763C116.051 27.6762 115.041 27.6675 114.032 27.6823C113.772 27.6861 113.695 27.616 113.695 27.3521C113.694 26.426 113.683 26.426 114.551 26.1522C115.28 25.9224 115.28 25.9224 115.014 25.2114C114.828 24.7149 114.637 24.2206 114.461 23.7209C114.394 23.5326 114.296 23.4587 114.087 23.46C112.666 23.4694 111.245 23.4694 109.824 23.46C109.614 23.4587 109.518 23.5329 109.452 23.7221C109.244 24.3229 109.031 24.9225 108.799 25.5145C108.721 25.7144 108.758 25.7874 108.958 25.8526C109.411 26.0009 109.852 26.1832 110.305 26.3335C110.533 26.4094 110.639 26.5129 110.637 26.7802C110.628 27.6761 110.641 27.6763 109.757 27.6763C108.508 27.6763 107.26 27.6713 106.011 27.6809C105.784 27.6826 105.714 27.6406 105.685 27.3857C105.609 26.7199 105.769 26.2318 106.453 25.9981C106.761 25.8927 106.907 25.6417 107.021 25.3378C108.46 21.519 109.913 17.7059 111.35 13.8863C111.457 13.6012 111.589 13.5067 111.89 13.5155C112.673 13.538 113.458 13.5368 114.241 13.5157C114.518 13.5081 114.625 13.6084 114.719 13.8583C116.166 17.7304 117.632 21.5954 119.069 25.4712C119.207 25.8441 119.435 26.0119 119.764 26.1456C120.431 26.4161 120.428 26.4238 120.428 27.1222C120.428 27.6762 120.428 27.6762 119.889 27.6763H117.06Z" fill="white"/>
<path fill-rule="evenodd" clip-rule="evenodd" d="M153.669 25.0094C153.669 24.5176 153.687 24.0249 153.662 23.5343C153.648 23.2426 153.767 23.2201 154.022 23.1811C154.775 23.0661 155.203 23.3523 155.487 24.0573C155.758 24.7304 156.154 25.3532 156.496 25.9978C156.557 26.1131 156.603 26.2327 156.759 26.2695C157.754 26.5041 158.733 26.5445 159.661 26.0243C160.861 25.352 160.96 24.0265 159.874 23.1908C159.332 22.7736 158.701 22.5207 158.08 22.2533C157.202 21.8753 156.323 21.4986 155.532 20.9535C153.94 19.8554 153.281 18.0002 153.857 16.1918C154.359 14.6149 155.586 13.8317 157.092 13.4972C159.171 13.0355 161.208 13.3059 163.18 14.0984C163.352 14.1673 163.426 14.2511 163.424 14.4447C163.414 15.3618 163.413 16.279 163.424 17.196C163.427 17.4202 163.361 17.4881 163.133 17.4945C162.112 17.5235 162.113 17.5309 161.603 16.6481C161.311 16.1425 161.017 15.6381 160.725 15.1325C160.652 15.0062 160.592 14.8764 160.421 14.8459C159.721 14.7213 159.022 14.6669 158.336 14.9152C157.123 15.3542 156.819 16.738 157.736 17.6427C158.208 18.1078 158.795 18.3901 159.385 18.6664C160.238 19.0658 161.123 19.394 161.952 19.8441C163.821 20.8595 164.656 22.9106 163.999 24.8535C163.738 25.6259 163.242 26.2153 162.59 26.6838C161.45 27.5019 160.147 27.8168 158.775 27.9048C157.079 28.0135 155.482 27.6274 153.943 26.9381C153.725 26.8402 153.656 26.7151 153.664 26.4845C153.681 25.9933 153.669 25.5011 153.669 25.0094Z" fill="white"/>
<path fill-rule="evenodd" clip-rule="evenodd" d="M9.79976 9.81091C9.99747 9.81737 10.1413 9.71341 10.191 9.53979C10.2481 9.34032 10.0375 9.32277 9.92431 9.26133C9.66771 9.12243 9.38168 9.06546 9.09492 9.0254C8.98386 9.00993 8.87902 9.01495 8.94412 9.19232C9.04801 9.47516 9.50926 9.81953 9.79976 9.81091ZM7.50452 9.20094C7.26412 9.1308 7.02787 9.06602 6.7949 8.99125C6.72053 8.96732 6.64865 8.92463 6.58657 8.87636C6.41806 8.74559 6.1712 8.58322 6.22138 8.39301C6.27644 8.18429 6.56471 8.29687 6.74399 8.30118C7.71157 8.32407 8.68322 8.21133 9.64649 8.37354C9.9271 8.42086 10.1953 8.51102 10.3301 8.79258C10.42 8.98032 10.602 8.94155 10.7447 8.97633C11.0657 9.05461 11.3944 9.102 11.7201 9.16128C11.8432 9.1837 12.0093 9.14955 11.9854 9.36282C11.9653 9.54019 11.8378 9.55838 11.6944 9.55982C11.6233 9.56046 11.5524 9.57857 11.4541 9.62157C11.8203 9.72817 11.9538 9.92365 11.8262 10.2822C11.6965 10.6471 11.4242 10.6876 11.0965 10.6898C10.5806 10.6932 10.0599 10.6314 9.55051 10.7707C9.26551 10.8489 8.9904 10.9466 8.79907 11.1883C8.7275 11.2787 8.61851 11.3783 8.68346 11.5047C8.74162 11.6179 8.87447 11.5642 8.97341 11.5646C9.73075 11.5689 10.4885 11.581 11.2453 11.5604C11.5635 11.5517 11.6018 11.6542 11.4996 11.9212C11.3026 12.4361 10.8906 12.6787 10.3337 12.5787C10.1513 12.546 9.97418 12.4802 9.79114 12.4561C9.5975 12.4306 9.36644 12.3777 9.24452 12.583C9.12827 12.7787 9.18412 12.9961 9.29934 13.188C9.47942 13.4881 9.72955 13.7251 9.99253 13.9511C10.5261 14.4098 11.0714 14.8564 11.5457 15.3792C12.0161 15.8976 12.3854 16.472 12.523 17.1742C12.6099 17.618 12.5669 17.6652 12.128 17.5573C10.2626 17.098 8.39846 16.6338 6.53112 16.1822C6.25537 16.1155 6.14255 16.0019 6.1542 15.6997C6.17463 15.1671 6.18724 14.6363 6.37099 14.1307C6.46537 13.8714 6.38431 13.8089 6.12915 13.8026C5.35976 13.7835 5.35753 13.7745 5.61716 13.0519C5.76995 12.6266 5.94907 12.2122 6.18564 11.8258C6.30181 11.636 6.25059 11.5594 6.03668 11.5679C5.99686 11.5695 5.95601 11.5732 5.91724 11.5669C5.71673 11.5339 5.43548 11.6782 5.33247 11.4823C5.24774 11.3213 5.47282 11.1328 5.57287 10.9677C5.85508 10.5023 6.16258 10.0538 6.53168 9.64894C6.72915 9.4324 6.9295 9.26413 7.24849 9.32141C7.33729 9.33729 7.43742 9.32836 7.50452 9.20094Z" fill="#FFDFBA"/>
<path fill-rule="evenodd" clip-rule="evenodd" d="M40.0325 9.03673C39.6767 9.00441 39.3548 9.11468 39.0476 9.25846C38.9262 9.31526 38.6931 9.33593 38.779 9.56508C38.8506 9.75625 39.0186 9.82909 39.2273 9.80963C39.5651 9.77811 39.9146 9.45234 40.0325 9.03673ZM41.5776 9.10502C41.7783 9.29244 41.9504 9.25678 42.0977 9.23675C42.5278 9.17811 42.7274 9.41141 42.86 9.76973C43.1619 10.5857 43.0217 11.3623 42.6561 12.1171C42.2661 12.922 41.6711 13.5954 41.2067 14.353C40.7915 15.0305 40.4509 15.7295 40.5444 16.5573C40.5658 16.7458 40.4871 16.8056 40.3113 16.8422C39.1059 17.0929 37.9029 17.3549 36.6992 17.6139C36.4236 17.6732 36.3894 17.557 36.4356 17.3099C36.6694 16.0596 37.4438 15.1654 38.369 14.381C38.9047 13.927 39.4827 13.5231 40.0385 13.0925C40.1955 12.971 40.3466 12.8404 40.4909 12.704C40.6143 12.5872 40.7898 12.4538 40.6823 12.2695C40.5789 12.0922 40.3987 12.2214 40.2517 12.2582C39.6232 12.4152 38.9907 12.4385 38.363 12.2731C38.0246 12.1838 37.7273 12.0115 37.5264 11.7043C37.3872 11.4916 37.4208 11.3983 37.69 11.4019C38.2345 11.4091 38.7793 11.4128 39.3236 11.3998C39.8021 11.3883 40.2402 11.2555 40.5713 10.8801C40.6405 10.8015 40.7348 10.7198 40.6924 10.6041C40.6436 10.4705 40.5107 10.5224 40.4138 10.5222C39.1255 10.5187 37.8371 10.5208 36.5487 10.5193C36.1462 10.5189 36.1028 10.4613 36.2665 10.0845C36.5724 9.38037 37.2167 9.19957 37.8864 9.10494C38.2125 9.05891 38.4908 9.08316 38.7095 8.7171C38.8983 8.40122 39.3372 8.31728 39.7094 8.31018C40.8229 8.28888 41.9372 8.30252 43.1305 8.30252C42.7521 8.89415 42.1814 8.99189 41.5776 9.10502Z" fill="#FFDFBA"/>
<path fill-rule="evenodd" clip-rule="evenodd" d="M10.8138 29.2403C11.5567 28.8109 12.2198 28.4268 12.8837 28.0439C13.2065 27.8577 13.531 27.6804 13.92 27.6728C14.8855 27.654 15.3927 28.2697 15.2348 29.3277C14.9485 29.0378 14.6495 28.8035 14.2406 28.7972C14.1487 28.7959 14.041 28.7776 13.9799 28.8592C13.8998 28.966 14.0283 29.0207 14.0701 29.0909C14.299 29.4755 14.4131 29.8618 14.1268 30.3067C13.8941 30.0117 13.6701 29.7414 13.3049 29.6389C13.0839 29.577 13.0001 29.6117 13.0535 29.852C13.076 29.9536 13.1013 30.0646 13.0827 30.1632C13.0434 30.3709 13.0115 30.6399 12.8234 30.7187C12.6733 30.7817 12.5968 30.5114 12.4776 30.3997C11.9939 29.9466 11.0564 29.9209 10.3175 30.3619C10.125 30.4767 9.9424 30.6084 9.68556 30.7786C9.68556 30.3539 9.6937 29.9798 9.68381 29.6062C9.66577 28.9228 9.54825 28.2614 9.20397 27.6579C9.145 27.5545 9.08261 27.4513 9.00897 27.3582C8.65854 26.9148 8.65726 26.9164 9.16391 26.6268C9.35979 26.515 9.56229 26.4125 9.7478 26.2853C10.092 26.0489 10.0934 25.7539 9.73854 25.5306C9.32349 25.2693 8.88984 25.0377 8.46665 24.7891C8.34362 24.7167 8.1953 24.6746 8.10785 24.506C8.49322 24.2804 8.87796 24.0551 9.27091 23.825C9.16176 23.6535 8.99381 23.5976 8.85011 23.5141C8.38144 23.242 8.3796 23.245 8.61577 22.7435C9.17532 21.5551 9.235 21.5368 10.3536 22.1901C11.1326 22.645 11.9163 23.092 12.6923 23.5519C13.27 23.8943 13.4096 24.5992 12.99 25.1284C12.5782 25.6477 12.1204 26.1306 11.7122 26.6525C11.1423 27.3811 10.8357 28.2132 10.8138 29.2403Z" fill="#FFDFBA"/>
<path fill-rule="evenodd" clip-rule="evenodd" d="M39.6407 23.7911C40.0883 24.0556 40.4637 24.2775 40.9044 24.5379C40.4459 24.8094 40.0311 25.0557 39.6153 25.3004C39.5009 25.3677 39.3803 25.4249 39.2685 25.496C38.8536 25.7603 38.8494 26.0529 39.2649 26.317C39.5447 26.495 39.8334 26.6595 40.1243 26.8187C40.2766 26.902 40.3157 26.9697 40.1775 27.1106C39.4805 27.8221 39.2984 28.7202 39.274 29.6704C39.2653 30.0152 39.2727 30.3603 39.2727 30.7741C38.7547 30.4321 38.2852 30.0934 37.6796 30.0521C37.0425 30.0087 36.525 30.1803 36.1891 30.7911C35.9259 30.5179 35.843 30.2273 35.9071 29.9003C35.9716 29.5713 35.8346 29.5716 35.5867 29.6655C35.265 29.7875 35.0416 30.0204 34.8381 30.3071C34.5317 29.8641 34.6783 29.4783 34.89 29.0923C34.9298 29.0198 35.0589 28.9664 34.9796 28.8597C34.9185 28.7778 34.8108 28.7936 34.719 28.7976C34.3219 28.8149 34.0158 29.0103 33.7286 29.3455C33.6182 28.8287 33.6707 28.3824 34.0239 28.0393C34.4034 27.6708 34.888 27.5774 35.3933 27.7345C36.0596 27.9417 36.6067 28.3839 37.2168 28.703C37.4165 28.8074 37.6031 28.9365 37.8024 29.042C37.9003 29.0939 38.0076 29.2291 38.1142 29.1339C38.1696 29.0845 38.1506 28.9322 38.1383 28.8295C38.0417 28.0215 37.7549 27.2854 37.2466 26.6487C36.8495 26.1514 36.4137 25.6848 36.0178 25.1865C35.5402 24.5858 35.6554 23.922 36.31 23.5314C37.3016 22.94 38.31 22.3769 39.3031 21.7882C39.5388 21.6484 39.6872 21.6882 39.8329 21.9011C40.0584 22.2303 40.2626 22.5705 40.4379 22.9294C40.5487 23.1563 40.5434 23.3144 40.2766 23.4267C40.0729 23.5125 39.8892 23.6462 39.6407 23.7911Z" fill="#FFDFBA"/>
<path fill-rule="evenodd" clip-rule="evenodd" d="M24.4854 8.2948C26.5167 8.2948 28.548 8.29943 30.5793 8.28945C30.8555 8.2881 31.0161 8.33039 30.9725 8.65273C30.958 8.75988 30.9323 8.90182 31.1067 8.93645C31.6811 9.05055 31.3386 9.49249 31.3667 9.76911C31.3995 10.0911 31.0747 9.93977 30.9091 9.95174C30.5657 9.97648 30.2189 9.94919 29.8742 9.96267C29.6468 9.97161 29.5447 9.91735 29.5408 9.6582C29.5304 8.94451 29.5176 8.94475 28.7997 8.94451H28.5607C27.787 8.94459 27.7809 8.94411 27.727 9.70201C27.7139 9.88616 27.6568 9.96403 27.4682 9.961C27.0169 9.95382 26.5653 9.95326 26.1141 9.9614C25.9226 9.96483 25.8735 9.88257 25.8571 9.70153C25.7817 8.86695 25.5015 8.62201 24.6567 8.62137C24.5105 8.62121 24.3645 8.62017 24.2185 8.62153C23.5033 8.62791 23.1649 8.91555 23.11 9.63499C23.0892 9.90602 22.9988 9.97217 22.7525 9.96307C22.3548 9.94847 21.9557 9.94863 21.558 9.96315C21.3212 9.97185 21.2349 9.89812 21.2306 9.64951C21.2184 8.94618 21.2054 8.94475 20.5063 8.94451H20.1877C19.4478 8.94459 19.4421 8.94443 19.4154 9.67001C19.4085 9.85919 19.3763 9.96834 19.1532 9.96227C18.7155 9.95055 18.2769 9.9515 17.839 9.96203C17.6256 9.96714 17.5559 9.87539 17.5688 9.67648C17.5783 9.53102 17.5355 9.37336 17.5775 9.2406C17.6842 8.9039 18.1215 8.73969 18.0749 8.31443C18.1938 8.30789 18.3125 8.29576 18.4313 8.29568C20.4493 8.29448 22.4674 8.2948 24.4854 8.2948Z" fill="#FFDFBA"/>
<path fill-rule="evenodd" clip-rule="evenodd" d="M24.6871 4.57861C24.794 4.33439 24.9397 4.12064 24.861 3.85191C24.8007 3.64574 24.7014 3.44659 24.4791 3.45385C24.2394 3.46167 24.1237 3.6597 24.1076 3.89755C24.0978 4.04348 24.0773 4.20002 24.1625 4.32529C24.2992 4.52619 24.2534 4.61101 24.0215 4.66726C23.6333 4.76157 23.3222 4.98625 23.0985 5.31832C23.0162 5.44064 22.9285 5.53199 22.7758 5.47822C22.6196 5.42332 22.6779 5.27683 22.6768 5.16784C22.6709 4.62298 22.6479 4.07627 22.6829 3.53356C22.7081 3.14173 22.5749 3.09752 22.2366 3.18553C21.212 3.4521 20.2183 3.76734 19.4755 4.58603C19.2849 4.79619 19.1345 5.02263 19.0864 5.31098C19.0382 5.59957 18.7728 5.68606 18.5517 5.48699C18.3599 5.31441 18.3422 5.09659 18.4258 4.86585C18.5002 4.66048 18.6332 4.55675 18.8564 4.65425C18.9563 4.69798 18.9975 4.6383 19.0483 4.57231C19.8825 3.48768 21.0891 3.06936 22.3511 2.82617C24.3832 2.43465 26.3942 2.53175 28.3234 3.36242C28.9246 3.62125 29.4745 3.96968 29.8704 4.51447C29.9382 4.60774 29.979 4.69981 30.149 4.64811C30.4623 4.55284 30.5438 4.79763 30.5685 5.03157C30.5974 5.30611 30.5194 5.53869 30.1903 5.58026C30.0443 5.59861 29.9261 5.56893 29.895 5.39659C29.7671 4.688 29.2601 4.27901 28.6969 3.93673C28.0684 3.5547 27.3723 3.33976 26.6561 3.17356C26.3505 3.10255 26.3245 3.21481 26.3292 3.4604C26.3399 4.01843 26.3347 4.57678 26.3309 5.13505C26.33 5.26135 26.3719 5.41893 26.2057 5.47822C26.038 5.53798 25.9425 5.43888 25.8513 5.30364C25.5781 4.89864 25.1643 4.70021 24.6871 4.57861Z" fill="#FFDFBA"/>
<path fill-rule="evenodd" clip-rule="evenodd" d="M15.6926 12.36C16.1745 12.3465 16.6102 12.3798 16.8073 12.8904C16.836 12.9648 16.8828 13.0462 16.8299 13.1153C16.7689 13.195 16.6868 13.1322 16.6125 13.1137C16.2408 13.021 15.8864 13.0556 15.6248 13.3566C15.3356 13.6895 15.3996 14.0695 15.5549 14.4443C15.7773 14.9811 15.773 15.0216 15.1944 14.9697C14.6494 14.9208 14.2953 15.1053 14.0267 15.5695C13.829 15.9111 13.5726 16.2186 13.3179 16.5757C12.9585 15.9758 12.5463 15.4661 11.8528 15.1092C12.5712 14.8507 13.2001 14.6246 13.8288 14.3981C13.941 14.3576 14.0498 14.3026 14.1652 14.2771C14.4396 14.2165 14.4714 14.0737 14.3756 13.8272C14.1883 13.3454 14.0338 12.8518 13.9495 12.3392C13.8725 11.8705 14.0911 11.4588 14.5 11.3102C14.5842 11.2796 14.6751 11.2139 14.7575 11.2951C14.8233 11.3599 14.7826 11.4469 14.7574 11.5195C14.679 11.7455 14.7124 11.9536 14.8326 12.1625C15.6374 11.1352 16.2037 10.9734 16.8254 11.613C16.3853 11.7598 15.8731 11.7944 15.6926 12.36Z" fill="#FFDFBA"/>
<path fill-rule="evenodd" clip-rule="evenodd" d="M33.3069 12.3651C33.0453 11.8174 32.5876 11.7394 32.1513 11.6243C32.6833 10.9413 33.4676 11.1584 34.111 12.182C34.2599 11.9433 34.2814 11.7141 34.1982 11.468C34.1284 11.2615 34.2205 11.2395 34.3966 11.2815C34.8352 11.3863 35.1131 11.8687 35.0114 12.3867C34.9141 12.8821 34.7696 13.3664 34.5814 13.8342C34.4782 14.0905 34.5448 14.1989 34.8008 14.2824C35.4059 14.4797 36.0031 14.7017 36.6009 14.9208C36.7347 14.9698 36.8895 14.9794 37.0288 15.1341C36.4811 15.4258 36.0874 15.8641 35.7871 16.3879C35.6651 16.6008 35.5772 16.4678 35.4981 16.3621C35.2434 16.0221 34.9747 15.6898 34.7515 15.3297C34.5841 15.0594 34.3863 14.9278 34.0718 14.9805C34.033 14.9869 33.9919 14.9843 33.9524 14.9809C33.7169 14.9606 33.4041 15.0884 33.2646 14.9235C33.1176 14.7497 33.3901 14.5306 33.4561 14.3227C33.7161 13.5029 33.2196 12.9362 32.3718 13.1051C32.2874 13.122 32.1911 13.2131 32.1233 13.1056C32.0695 13.0201 32.1317 12.9228 32.1753 12.8431C32.3244 12.5714 32.5424 12.39 32.8631 12.3667C32.9916 12.3572 33.1214 12.3651 33.3069 12.3651Z" fill="#FFDFBA"/>
<path fill-rule="evenodd" clip-rule="evenodd" d="M24.4622 7.97635C24.0913 7.97619 23.7203 7.9734 23.3495 7.97755C23.1972 7.97915 23.092 7.94827 23.0947 7.76332C23.1028 7.22053 23.059 6.67255 23.1199 6.13622C23.2091 5.35032 23.7899 4.90447 24.5794 4.93279C25.2834 4.95808 25.8168 5.49018 25.858 6.24928C25.8846 6.73798 25.856 7.22947 25.8675 7.71928C25.8728 7.94268 25.7635 7.98306 25.5747 7.97891C25.204 7.97085 24.833 7.97651 24.4622 7.97635Z" fill="#FFDFBA"/>
<path fill-rule="evenodd" clip-rule="evenodd" d="M24.4336 10.7656C22.4155 10.7656 20.3974 10.7669 18.3793 10.7632C18.2126 10.7629 17.9898 10.846 17.9881 10.5269C17.9864 10.2161 18.1978 10.2789 18.3723 10.2789C22.4484 10.2773 26.5245 10.2776 30.6006 10.2777C30.7845 10.2777 30.9806 10.2369 30.9719 10.5401C30.9636 10.8303 30.7656 10.7636 30.6075 10.7638C28.5495 10.7665 26.4916 10.7656 24.4336 10.7656Z" fill="#FFDFBA"/>
<path fill-rule="evenodd" clip-rule="evenodd" d="M34.3911 27.0485C33.9461 27.0786 33.465 26.9703 33.0538 26.6326C32.6195 26.2759 32.5244 25.6244 32.8342 25.162C33.1045 24.7585 33.684 24.6107 34.1002 24.8466C34.1902 24.8976 34.2788 24.9659 34.3414 25.0469C34.4526 25.1904 34.5593 25.3259 34.2405 25.3806C33.9346 25.4329 33.7583 25.6557 33.7749 25.9801C33.7909 26.2922 33.9952 26.4431 34.2817 26.5061C34.7881 26.6175 35.2457 26.437 35.704 26.2668C35.8153 26.2255 35.9191 26.1645 36.0267 26.1133C36.2536 26.0054 36.349 26.196 36.4343 26.3257C36.557 26.5122 36.347 26.5374 36.2488 26.5927C35.6436 26.9338 35.1745 27.0499 34.3911 27.0485Z" fill="#FFDFBA"/>
<path fill-rule="evenodd" clip-rule="evenodd" d="M18.9345 7.97666C17.9912 7.97666 17.9912 7.97666 17.9912 7.01722C17.9912 6.87121 17.9911 6.72504 17.9912 6.57903C17.992 6.08276 18.143 5.92717 18.6472 5.90291C19.2792 5.8726 19.8125 6.32467 19.8856 6.95276C20.0047 7.97666 20.0047 7.97666 18.9345 7.97666Z" fill="#FFDFBA"/>
<path fill-rule="evenodd" clip-rule="evenodd" d="M30.0179 7.97667C29.9914 7.97667 29.963 7.98297 29.9386 7.97571C29.6558 7.89105 29.2347 8.18986 29.09 7.81486C28.8625 7.22443 29.1203 6.44954 29.5397 6.141C29.9296 5.85416 30.455 5.8252 30.8114 6.0522C30.9468 6.13829 30.9696 6.24895 30.9688 6.38802C30.9664 6.81273 30.9564 7.23791 30.9725 7.66206C30.9818 7.90565 30.8993 7.99909 30.6546 7.98002C30.4437 7.9635 30.2302 7.97659 30.0179 7.97667Z" fill="#FFDFBA"/>
<path fill-rule="evenodd" clip-rule="evenodd" d="M27.4642 7.97666C27.2123 7.97666 26.9595 7.96334 26.7086 7.9801C26.402 8.00052 26.2834 7.94148 26.4575 7.61643C26.7141 7.13786 26.9383 6.64214 27.1793 6.1552C27.2363 6.03999 27.2743 5.90978 27.4477 5.90052C27.6412 5.89015 27.692 6.02563 27.7551 6.15688C28.0017 6.67039 28.2399 7.18813 28.4971 7.69621C28.6231 7.94507 28.5298 7.98839 28.2996 7.97922C28.0215 7.96813 27.7427 7.97658 27.4642 7.97666Z" fill="#FFDFBA"/>
<path fill-rule="evenodd" clip-rule="evenodd" d="M21.5018 7.97635C21.1967 7.97619 20.8916 7.97117 20.5866 7.97803C20.386 7.98258 20.3621 7.90925 20.4446 7.74138C20.7131 7.19412 20.966 6.63912 21.2411 6.09537C21.3852 5.81069 21.6082 5.82018 21.7575 6.11316C22.0221 6.6329 22.2675 7.16244 22.5315 7.68234C22.6499 7.91548 22.5852 7.98912 22.3374 7.97907C22.0593 7.9679 21.7803 7.97651 21.5018 7.97635Z" fill="#FFDFBA"/>
<path fill-rule="evenodd" clip-rule="evenodd" d="M35.7798 10.7859C36.2007 11.1156 36.6213 10.9528 37.0349 10.8916C37.4056 10.8369 37.7335 10.9108 38.0157 11.2016C37.4642 11.1813 36.9602 11.3726 36.4386 11.4742C35.9688 11.5659 35.7577 11.336 35.7798 10.7859Z" fill="#FFDFBA"/>
<path fill-rule="evenodd" clip-rule="evenodd" d="M10.9041 11.3896C11.3051 10.989 11.7501 11.0503 12.1732 11.1038C12.4794 11.1426 12.7687 11.2084 13.0616 11.0493C13.2445 10.9499 13.2767 11.0732 13.2338 11.2145C13.1596 11.4587 13.0157 11.6404 12.7338 11.6518C12.5477 11.6593 12.3651 11.6459 12.1871 11.5756C11.7943 11.4206 11.377 11.3954 10.9041 11.3896Z" fill="#FFDFBA"/>
<path fill-rule="evenodd" clip-rule="evenodd" d="M27.7921 5.07892C27.7704 5.29674 27.7564 5.56307 27.4622 5.56371C27.1962 5.56435 27.1544 5.31868 27.1479 5.09982C27.1412 4.87682 27.1818 4.64591 27.4524 4.63227C27.729 4.61831 27.776 4.84586 27.7921 5.07892Z" fill="#FFDFBA"/>
<path fill-rule="evenodd" clip-rule="evenodd" d="M21.8142 5.12341C21.8084 5.33277 21.7634 5.57141 21.4938 5.56391C21.2037 5.55594 21.1662 5.29376 21.1749 5.06341C21.1831 4.84727 21.2359 4.60623 21.5178 4.62833C21.7888 4.64971 21.814 4.88509 21.8142 5.12341Z" fill="#FFDFBA"/>
<path fill-rule="evenodd" clip-rule="evenodd" d="M27.678 24.7166C27.678 25.341 27.6719 25.9655 27.6815 26.5898C27.6846 26.7933 27.6243 26.8774 27.4104 26.8663C27.1189 26.8512 26.8253 26.8497 26.5341 26.8667C26.3128 26.8795 26.2657 26.7841 26.2723 26.5868C26.2843 26.2285 26.2671 25.8693 26.2778 25.5109C26.2899 25.1115 25.9765 25.1476 25.7512 25.1451C25.5115 25.1425 25.1788 25.0909 25.1746 25.5033C25.1709 25.8619 25.1611 26.2213 25.178 26.5792C25.1891 26.8128 25.1002 26.8799 24.8792 26.8663C24.6145 26.8501 24.3473 26.8503 24.0826 26.8663C23.863 26.8797 23.7713 26.8158 23.7834 26.5807C23.801 26.2362 23.7771 25.8897 23.7905 25.5448C23.8077 25.1005 23.4696 25.1429 23.2137 25.1445C22.9697 25.1459 22.6533 25.1232 22.6797 25.5461C22.7014 25.8902 22.6703 26.2375 22.6889 26.5819C22.7016 26.8169 22.6111 26.8636 22.3928 26.868C21.2863 26.8902 21.2865 26.8965 21.2865 25.7935C21.2865 24.837 21.3026 23.8801 21.2776 22.9241C21.2689 22.595 21.3972 22.4641 21.6909 22.4327C21.7962 22.4214 21.9026 22.4129 22.0084 22.4136C22.6198 22.4174 22.6841 22.4825 22.6841 23.0856V23.4045C22.6841 24.1616 22.8311 24.2723 23.6065 24.1331C23.7704 24.1036 23.7891 24.0175 23.7883 23.8871C23.7862 23.5284 23.7999 23.1691 23.7834 22.8112C23.7734 22.5925 23.8605 22.4894 24.0662 22.4646C24.2105 22.4473 24.3547 22.4153 24.4989 22.415C25.1101 22.4138 25.1736 22.4807 25.1736 23.0871C25.1736 23.2598 25.1735 23.4325 25.1736 23.6052C25.1737 24.1305 25.1737 24.1305 25.7133 24.1307C26.2757 24.1308 26.2757 24.1308 26.2757 23.5625C26.2757 23.4031 26.2549 23.2402 26.2809 23.0851C26.3143 22.8847 26.1328 22.6063 26.4469 22.4987C26.8359 22.3656 27.2313 22.3592 27.6068 22.5501C27.7191 22.6072 27.6763 22.7413 27.6767 22.8432C27.6795 23.4677 27.6781 24.0921 27.678 24.7166Z" fill="#014593"/>
<path fill-rule="evenodd" clip-rule="evenodd" d="M22.5309 15.7142C22.5309 15.3424 22.5397 14.9705 22.5273 14.5991C22.5209 14.4094 22.5818 14.3353 22.7743 14.3501C22.9457 14.3634 23.1231 14.3293 23.2909 14.3573C23.7266 14.4301 23.8452 14.2339 23.792 13.837C23.7676 13.6544 23.7682 13.4631 23.7932 13.2807C23.8194 13.0902 23.6541 12.8245 23.9394 12.723C24.3249 12.5859 24.7217 12.5807 25.1006 12.7619C25.2214 12.8198 25.1697 12.9512 25.1713 13.0502C25.1771 13.4086 25.1803 13.7673 25.1709 14.1254C25.1665 14.2985 25.2303 14.3723 25.4014 14.3528C25.4145 14.3513 25.428 14.3523 25.4413 14.3527C25.7568 14.3629 26.1944 14.2508 26.3577 14.4136C26.5722 14.6278 26.4179 15.0647 26.4265 15.4054C26.4383 15.8697 26.4206 16.3347 26.4335 16.799C26.439 17.0002 26.3884 17.0677 26.172 17.0752C25.0274 17.114 25.0325 17.121 25.022 15.967C25.0203 15.7861 25.1339 15.5439 24.8821 15.4375C24.617 15.3255 24.3391 15.3371 24.0678 15.4389C23.9207 15.4941 23.9376 15.6213 23.9373 15.7397C23.9365 16.0848 23.9258 16.4305 23.9409 16.7749C23.9503 16.9924 23.8935 17.0959 23.6563 17.0715C23.2915 17.0338 22.8166 17.2264 22.5911 16.9891C22.4157 16.8047 22.5392 16.3355 22.5312 15.9928C22.5289 15.9 22.5308 15.807 22.5309 15.7142Z" fill="#014593"/>
</svg>
