<svg width="180" height="33" viewBox="0 0 180 33" fill="none" xmlns="http://www.w3.org/2000/svg">
<path fill-rule="evenodd" clip-rule="evenodd" d="M44.4545 32.0597C44.0031 31.6963 43.8386 31.2258 43.9673 30.6244C43.3498 30.803 43.2221 31.3015 43.0591 31.8186C42.6799 31.3199 42.5903 30.8045 42.8123 30.2638C43.0446 29.6981 43.528 29.4549 44.1114 29.4372C44.855 29.4145 45.5997 29.419 46.3437 29.434C46.6345 29.4397 46.7142 29.35 46.6614 29.0634C46.4688 28.0177 45.8085 27.4562 44.567 27.2705C44.0515 27.1933 43.5362 27.1901 43.0189 27.1805C42.2728 27.1665 41.8971 26.7885 41.9027 26.0391C41.9138 24.5498 41.5989 23.1712 40.6046 22.0037C39.7283 20.9746 38.5891 20.4672 37.2747 20.3433C36.1378 20.2363 35.0198 20.3514 33.9636 20.8319C33.7964 20.9079 33.722 20.9164 33.6784 20.6887C33.4841 19.6744 33.1363 19.4288 32.1516 19.5671C32.2172 19.0726 32.4018 18.8986 33.2039 18.5872C33.0102 18.2468 32.6987 18.2042 32.3822 18.291C32.0467 18.383 32.077 18.2487 32.1604 18.0249C32.2889 17.6796 32.6088 17.5011 32.9906 17.5765C33.1287 17.6037 33.2628 17.65 33.4149 17.6921C33.2605 17.1657 32.9258 17.0407 32.1106 17.1981C32.1327 16.8398 32.3475 16.649 32.6335 16.5269C33.5305 16.1438 34.4237 16.7939 34.4751 17.8684C34.4904 18.1867 34.4956 18.5073 34.4745 18.8248C34.4521 19.1625 34.5189 19.278 34.8864 19.1407C36.5639 18.5142 38.2497 17.9101 39.9326 17.2981C40.0822 17.2437 40.2377 17.2019 40.3806 17.1337C40.5879 17.0348 40.7343 17.0677 40.9078 17.2343C41.4245 17.7308 42.1295 17.7301 42.6241 17.2619C43.1165 16.7957 43.1731 16.0713 42.7079 15.54C42.366 15.1494 42.3302 14.7753 42.5097 14.2982C43.1042 12.7188 43.7098 11.1463 44.6235 9.71599C44.9457 9.21165 45.3213 8.74721 45.7497 8.32601C45.955 8.12431 46.0536 8.14881 46.1356 8.43173C46.4861 9.63947 46.3002 10.7626 45.6587 11.8322C45.1756 12.6376 44.5114 13.291 43.9004 13.9896C43.7081 14.2094 43.5217 14.4356 43.3155 14.6417C43.1209 14.8362 43.1851 15.0046 43.3471 15.1538C43.5269 15.3195 43.5994 15.1017 43.6845 15.0186C44.7106 14.0159 45.7302 13.0063 46.9407 12.2184C47.4643 11.8778 48.0142 11.5935 48.6677 11.4133C48.5995 12.5282 48.1728 13.4134 47.3427 14.102C46.4057 14.8792 45.2504 15.2401 44.1778 15.759C44.0945 15.7993 44.0036 15.8278 43.9281 15.8793C43.7824 15.979 43.7801 16.1374 43.8376 16.2737C43.9052 16.4341 44.0423 16.3436 44.1458 16.3042C45.0012 15.9782 45.8578 15.6587 46.7489 15.4384C47.4104 15.2748 48.0773 15.1998 48.7591 15.2215C49.0619 15.2311 49.1476 15.2842 48.9616 15.5785C48.4238 16.4297 47.6238 16.8312 46.6645 16.9874C45.8455 17.1208 45.0209 17.0437 44.199 17.0669C44.0941 17.0698 43.9816 17.0647 43.887 17.1011C43.7821 17.1413 43.7303 17.2554 43.75 17.3648C43.7773 17.5165 43.9172 17.4617 44.0116 17.4681C44.8843 17.5279 45.7565 17.59 46.6117 17.7885C46.9749 17.8728 47.3185 18.0139 47.66 18.1613C47.9484 18.2858 47.9202 18.4104 47.6799 18.5607C46.9598 19.011 46.1896 19.0142 45.418 18.7659C44.9021 18.6 44.4118 18.3553 43.9102 18.1453C43.8245 18.1094 43.7428 18.062 43.6547 18.0344C43.5211 17.9926 43.3737 17.9839 43.3023 18.1272C43.2034 18.3254 43.4101 18.3376 43.5075 18.3897C44.3043 18.8166 45.1062 19.2344 45.7385 19.9027C45.8454 20.0156 45.9797 20.1137 46.0038 20.3085C45.231 20.5623 44.5993 20.2736 44.0369 19.7892C43.7266 19.5218 43.4633 19.1997 43.18 18.901C43.107 18.824 43.0407 18.7407 42.9675 18.664C42.8678 18.5595 42.754 18.5611 42.6462 18.6452C42.5028 18.7569 42.6516 18.8322 42.7 18.8979C42.9988 19.304 43.3261 19.6901 43.5742 20.1314C43.691 20.3392 43.8007 20.5527 43.8907 20.773C43.9531 20.9256 44.1002 21.1466 43.9854 21.2436C43.8248 21.3794 43.6134 21.2132 43.4439 21.1205C42.9208 20.8343 42.6574 20.3472 42.4653 19.8116C42.3758 19.5619 42.3004 19.3072 42.2155 19.0559C42.163 18.9001 42.0559 18.7994 41.8867 18.833C41.6809 18.8737 41.7766 19.0329 41.7849 19.1548C41.8584 20.2362 42.1899 21.203 42.9975 21.9717C43.7815 22.7181 44.7347 23.0863 45.7861 23.1984C46.3888 23.2627 47.0037 23.2987 47.6026 23.1285C47.7423 23.0889 47.8815 23.0397 48.0116 22.9759C48.2356 22.8664 48.4412 22.703 48.4156 22.4371C48.3923 22.1953 48.1829 22.0631 47.9558 21.9915C46.933 21.6694 45.9514 21.8671 45.0214 22.3039C44.6379 22.4839 44.3522 22.4613 44.0092 22.1997C44.3857 21.9128 44.8208 21.7722 45.244 21.6215C46.1195 21.3097 47.0187 21.1702 47.941 21.3845C48.6823 21.5568 49.0321 21.9573 49.0142 22.5561C49.001 22.9963 48.7371 23.2601 48.3951 23.4662C47.9767 23.7182 47.511 23.8272 47.0283 23.8427C46.4708 23.8606 45.9121 23.8647 45.3543 23.8529C45.1036 23.8476 44.9867 23.9102 45.0074 24.184C45.0283 24.4615 45.0058 24.742 45.0138 25.0209C45.0276 25.4943 45.2889 25.7561 45.7591 25.7646C46.1709 25.7718 46.5837 25.7808 46.9946 25.7616C47.2632 25.7491 47.3285 25.8516 47.3304 26.1065C47.3384 27.1649 47.5214 28.19 47.9806 29.1545C48.2048 29.6251 48.5302 30.0234 48.9521 30.4705C48.5242 30.4705 48.1745 30.4788 47.8255 30.4681C47.5046 30.4583 47.1886 30.4884 46.8762 30.5521C46.3113 30.6676 46.0214 30.972 45.9655 31.5522C45.9366 31.8537 45.8409 31.8554 45.6273 31.7024C45.4125 31.5486 45.2484 31.3479 45.1913 31.1025C45.1018 30.7176 44.9448 30.8711 44.8084 31.0393C44.5695 31.3336 44.5784 31.7064 44.5342 32.0597H44.4545Z" fill="#AB9A88"/>
<path fill-rule="evenodd" clip-rule="evenodd" d="M27.6781 24.7165C27.6781 24.0921 27.6794 23.4677 27.6767 22.8432C27.6763 22.7413 27.7191 22.6072 27.6068 22.5501C27.2313 22.3592 26.8359 22.3656 26.4469 22.4987C26.1328 22.6063 26.3143 22.8847 26.2809 23.0851C26.2549 23.2402 26.2757 23.4031 26.2757 23.5625C26.2757 24.1307 26.2757 24.1307 25.7132 24.1307C25.1737 24.1305 25.1737 24.1305 25.1736 23.6052C25.1735 23.4325 25.1736 23.2598 25.1736 23.0871C25.1736 22.4807 25.1101 22.4138 24.4989 22.415C24.3547 22.4153 24.2105 22.4473 24.0662 22.4646C23.8605 22.4894 23.7735 22.5925 23.7834 22.8111C23.7999 23.1691 23.7861 23.5284 23.7883 23.8871C23.7891 24.0175 23.7703 24.1036 23.6065 24.1331C22.8311 24.2723 22.6841 24.1615 22.6841 23.4044V23.0856C22.6841 22.4825 22.6198 22.4174 22.0084 22.4136C21.9026 22.4129 21.7962 22.4214 21.6909 22.4327C21.3972 22.4641 21.2689 22.595 21.2776 22.9241C21.3026 23.8801 21.2865 24.837 21.2865 25.7935C21.2865 26.8965 21.2863 26.8902 22.3928 26.868C22.611 26.8636 22.7016 26.8169 22.6889 26.5819C22.6702 26.2375 22.7014 25.8902 22.6797 25.5461C22.6532 25.1232 22.9697 25.1459 23.2137 25.1444C23.4696 25.1429 23.8077 25.1005 23.7905 25.5448C23.7771 25.8897 23.801 26.2362 23.7834 26.5807C23.7713 26.8158 23.863 26.8797 24.0826 26.8663C24.3473 26.8503 24.6145 26.8501 24.8792 26.8663C25.1002 26.8799 25.1891 26.8128 25.178 26.5792C25.161 26.2213 25.1709 25.8619 25.1746 25.5032C25.1788 25.0909 25.5115 25.1425 25.7511 25.1451C25.9765 25.1476 26.2899 25.1115 26.2778 25.5109C26.2671 25.8693 26.2843 26.2285 26.2723 26.5868C26.2657 26.7841 26.3128 26.8795 26.5341 26.8667C26.8253 26.8497 27.1189 26.8512 27.4105 26.8663C27.6243 26.8774 27.6846 26.7933 27.6815 26.5898C27.6719 25.9655 27.678 25.341 27.6781 24.7165ZM24.3589 32.0597C24.3177 31.8921 24.1512 31.8758 24.0363 31.8055C21.8372 30.4572 19.9658 28.7887 18.7659 26.4557C17.8083 24.5938 17.3743 22.5995 17.2509 20.5253C17.2473 20.465 17.2568 20.4038 17.2617 20.3134C18.8284 21.3253 20.4391 21.1486 22.0596 20.6022C23.6776 20.0567 25.2885 20.0409 26.8998 20.6063C28.0501 21.01 29.2181 21.162 30.4218 20.8986C30.877 20.799 31.2827 20.5858 31.7156 20.2637C31.6977 21.3411 31.5403 22.3157 31.3318 23.284C30.5414 26.9547 28.3953 29.6339 25.2621 31.595C25.0342 31.7377 24.7638 31.8259 24.5981 32.0597H24.3589Z" fill="#014593"/>
<path fill-rule="evenodd" clip-rule="evenodd" d="M179.939 17.9439C179.821 17.9364 179.697 17.9037 179.584 17.9256C178.858 18.0656 178.442 17.794 178.216 17.072C178.036 16.4951 177.706 15.9663 177.467 15.4058C177.372 15.1846 177.245 15.1177 177.015 15.1253C176.524 15.1415 176.032 15.1438 175.541 15.1248C175.281 15.1147 175.204 15.1946 175.206 15.4568C175.219 16.7589 175.212 18.0612 175.212 19.3634C175.212 21.4231 175.218 23.4828 175.206 25.5423C175.204 25.8316 175.273 25.9646 175.577 26.0183C176.032 26.0989 176.477 26.2418 176.927 26.3517C177.086 26.3902 177.163 26.4482 177.173 26.6397C177.226 27.6766 177.234 27.6762 176.198 27.6762C174.099 27.6762 171.999 27.6691 169.9 27.684C169.582 27.6862 169.501 27.5975 169.508 27.287C169.525 26.4261 169.514 26.436 170.33 26.2133C170.711 26.1094 171.236 26.1538 171.432 25.8618C171.612 25.5935 171.488 25.1176 171.488 24.7332C171.49 21.6636 171.485 18.5941 171.495 15.5246C171.496 15.2301 171.447 15.0997 171.113 15.1221C170.637 15.1541 170.157 15.1417 169.679 15.1253C169.448 15.1173 169.327 15.1897 169.231 15.4077C168.906 16.1478 168.548 16.8738 168.219 17.6123C168.121 17.8317 168.007 17.9302 167.749 17.9288C166.758 17.923 166.758 17.9337 166.758 16.9353C166.758 15.9253 166.773 14.9152 166.75 13.9058C166.742 13.5777 166.853 13.5164 167.154 13.517C171.259 13.5259 175.365 13.5236 179.471 13.5209C179.627 13.5208 179.79 13.5622 179.939 13.4778V17.9439Z" fill="#014593"/>
<mask id="mask0" mask-type="alpha" maskUnits="userSpaceOnUse" x="0" y="13" width="17" height="20">
<path fill-rule="evenodd" clip-rule="evenodd" d="M0 13.3888H16.8609V32.0597H0V13.3888Z" fill="white"/>
</mask>
<g mask="url(#mask0)">
<path fill-rule="evenodd" clip-rule="evenodd" d="M4.42299 32.0597C4.4103 31.7123 4.37113 31.3698 4.17916 31.0686C4.12371 30.9815 4.04839 30.8832 3.93286 30.8852C3.78685 30.8878 3.80823 31.0307 3.77105 31.1228C3.6698 31.3745 3.52387 31.5858 3.28642 31.7365C3.11217 31.847 3.06334 31.778 3.01578 31.6174C2.75017 30.72 2.44794 30.493 1.48044 30.4728C1.01959 30.4631 0.558336 30.4712 -1.52588e-05 30.4712C0.662697 29.829 1.06762 29.1272 1.30259 28.3306C1.51363 27.6149 1.64871 26.8839 1.62804 26.1362C1.61959 25.8307 1.72227 25.7438 2.01565 25.7609C2.41307 25.784 2.81288 25.7723 3.21142 25.7644C3.66397 25.7553 3.93358 25.4944 3.94522 25.054C3.95312 24.7486 4.0282 24.4075 3.91937 24.1465C3.79514 23.8488 3.39198 23.9614 3.11608 23.8811C1.21044 23.326 0.533682 21.077 1.78834 19.4351C2.1607 18.9478 2.59475 18.5172 3.05552 18.1145C3.51828 17.7101 3.94658 17.2741 4.25703 16.7414C4.72674 15.9352 4.57658 15.0005 3.90573 14.4259C3.29998 13.907 2.29411 13.9144 1.61592 14.4424C0.9394 14.9693 0.905091 16.0792 1.56014 16.5626C1.8319 16.7631 2.13733 16.828 2.45695 16.6576C2.66528 16.5466 2.71004 16.3575 2.67717 16.147C2.62299 15.8001 2.37158 15.6537 2.05993 15.6328C1.71932 15.6098 1.77078 15.4437 1.87586 15.2385C2.09911 14.8031 2.65754 14.6103 3.15198 14.7944C3.63485 14.9743 3.8928 15.5254 3.75262 16.0774C3.57022 16.7955 2.85389 17.3309 2.12608 17.2933C1.28097 17.2495 0.659107 16.7308 0.513894 15.9572C0.379612 15.2426 0.570463 14.621 1.05102 14.0751C0.842059 13.9345 0.604054 13.8593 0.449586 13.6696C0.363815 13.5641 0.26057 13.4054 0.515011 13.4081C1.43049 13.4179 2.3486 13.3364 3.26113 13.4495C4.98828 13.6638 5.78647 15.4311 5.02658 16.9837C4.74238 17.5645 4.32748 18.0485 3.88363 18.5069C3.69517 18.7015 3.66541 18.8001 3.95536 18.905C4.27371 19.0203 4.53421 19.219 4.64791 19.5956C4.31831 19.6465 4.016 19.4979 3.70155 19.5529C2.64772 19.7377 2.06248 20.5802 2.28581 21.6145C2.48488 22.5362 3.44791 23.0906 4.41796 22.8506C5.1153 22.678 5.5653 22.2135 5.9036 21.6155C6.4456 20.6574 6.60733 19.5948 6.73291 18.525C6.79794 17.9715 6.8502 17.414 6.81533 16.8565C6.79506 16.5313 6.90924 16.5144 7.17445 16.6125C8.96639 17.2745 10.7618 17.9273 12.5566 18.582C13.0801 18.7729 13.6101 18.947 14.1269 19.1544C14.4321 19.277 14.4893 19.1735 14.4852 18.8874C14.4783 18.4108 14.4446 17.9317 14.5513 17.4586C14.735 16.6453 15.5922 16.1972 16.3441 16.5338C16.6192 16.657 16.825 16.845 16.8464 17.1821C15.9836 17.0612 15.7547 17.1457 15.5296 17.6856C15.6983 17.6483 15.8479 17.6126 15.9986 17.5823C16.2682 17.5279 16.5002 17.6048 16.6808 17.8084C16.7969 17.9392 16.9164 18.1107 16.833 18.2744C16.755 18.4278 16.598 18.2637 16.4743 18.2611C16.1837 18.2549 15.921 18.287 15.7465 18.6044C16.27 18.7528 16.7197 18.97 16.8436 19.5632C15.7961 19.4555 15.4797 19.6769 15.281 20.6833C15.2383 20.8994 15.1761 20.9132 14.9991 20.834C14.033 20.4018 13.0172 20.2872 11.9663 20.323C9.60134 20.4036 7.67081 22.0244 7.2153 24.3407C7.10225 24.9155 7.04823 25.4935 7.05509 26.0803C7.06323 26.7756 6.67913 27.1678 5.97964 27.1777C5.30209 27.1874 4.62453 27.1844 3.96429 27.3642C3.06054 27.6102 2.41738 28.0997 2.29826 29.1087C2.26754 29.3685 2.3348 29.4355 2.58142 29.4324C3.32552 29.4228 4.07025 29.4158 4.81403 29.4346C5.99895 29.4644 6.62687 30.567 6.06565 31.6117C6.02839 31.681 5.98913 31.7535 5.88804 31.7747C5.73741 31.3014 5.60951 30.8037 4.99889 30.6268C5.1319 31.2312 4.9578 31.6983 4.5027 32.0597H4.42299Z" fill="#AB9A88"/>
</g>
<path fill-rule="evenodd" clip-rule="evenodd" d="M23.8805 0C23.9172 0.111782 23.9613 0.221729 23.9891 0.335665C24.0673 0.65625 24.2374 0.693351 24.5101 0.538803C24.6211 0.475851 24.7475 0.334548 24.9006 0.471862C25.0769 0.63 25.0187 0.853644 24.7431 0.938697C24.3941 1.04633 24.2995 1.20766 24.5024 1.53064C24.5852 1.66237 24.6331 1.81987 24.6763 1.97154C24.7103 2.09114 24.6918 2.21729 24.5581 2.27537C24.4194 2.33561 24.3328 2.25495 24.2713 2.13989C24.2339 2.06992 24.2016 1.99731 24.1679 1.92551C23.9165 1.39069 23.9133 1.37976 23.363 1.54572C23.1827 1.60005 23.1276 1.52848 23.0638 1.39516C22.9959 1.25362 23.0393 1.17 23.1748 1.11519C23.2115 1.10035 23.2449 1.07473 23.2826 1.06508C23.6263 0.977394 23.742 0.800824 23.5344 0.472979C23.4186 0.290106 23.4528 0.123112 23.6413 0H23.8805Z" fill="#AB9A88"/>
<path fill-rule="evenodd" clip-rule="evenodd" d="M62.5539 17.3743V18.6885C62.5539 19.6441 62.5539 19.644 63.518 19.6047C65.2058 19.5359 66.0685 18.4442 65.761 16.7767C65.6102 15.9578 65.1181 15.4645 64.3342 15.2399C63.8414 15.0987 63.3338 15.1477 62.8312 15.1255C62.5932 15.1149 62.5456 15.2075 62.5495 15.4231C62.5617 16.0732 62.554 16.7239 62.5539 17.3743ZM62.5539 23.6174C62.5539 24.3333 62.562 25.0492 62.5492 25.765C62.5453 25.9918 62.5802 26.1034 62.8458 26.0844C63.2019 26.0589 63.5613 26.0838 63.919 26.0753C65.2725 26.0427 66.0539 25.3615 66.1916 24.0188C66.3489 22.4827 65.6694 21.174 63.7592 21.1913C63.4676 21.1939 63.1749 21.2065 62.8847 21.1867C62.6331 21.1695 62.5396 21.2378 62.5473 21.5096C62.5671 22.2117 62.5539 22.9147 62.5539 23.6174ZM65.8358 20.2314C66.5474 20.3115 67.2331 20.4436 67.8809 20.7329C69.7033 21.5468 70.4902 23.1536 69.9744 25.0184C69.751 25.8256 69.2667 26.4357 68.5551 26.8647C67.6454 27.4132 66.6416 27.658 65.593 27.6658C62.9233 27.6858 60.2534 27.6714 57.5837 27.682C57.3366 27.6829 57.2748 27.6156 57.2734 27.3718C57.268 26.4281 57.2586 26.4282 58.1805 26.1339C58.8377 25.9243 58.8377 25.9243 58.8377 25.2228C58.8377 22.0479 58.8326 18.8731 58.8456 15.6982C58.8469 15.3789 58.7769 15.1945 58.4454 15.1529C58.3549 15.1416 58.2681 15.1002 58.1796 15.0724C57.2564 14.7828 57.266 14.7829 57.2733 13.831C57.2753 13.585 57.3417 13.5148 57.5871 13.5177C58.6495 13.5303 59.7123 13.5203 60.7749 13.5237C62.2226 13.5284 63.6704 13.5258 65.1179 13.5492C66.0568 13.5643 66.9602 13.7664 67.799 14.2055C68.8092 14.7343 69.3758 15.5501 69.4189 16.7107C69.4638 17.9215 68.9322 18.7985 67.9008 19.3969C67.3093 19.7401 66.6638 19.9351 66.0033 20.0896C65.9435 20.1036 65.867 20.0914 65.8358 20.2314Z" fill="#014593"/>
<path fill-rule="evenodd" clip-rule="evenodd" d="M94.8901 20.5977V25.1805C94.8901 26.0783 94.8901 26.0783 95.8002 26.0782C97.7042 26.0781 98.9451 25.2725 99.6297 23.4872C100.343 21.6281 100.369 19.7194 99.768 17.8274C99.3582 16.5374 98.5116 15.629 97.1645 15.2606C96.5401 15.0899 95.8989 15.1514 95.2636 15.1239C94.9678 15.1111 94.8802 15.1937 94.8828 15.4971C94.8978 17.1972 94.8901 18.8975 94.8901 20.5977ZM93.8705 13.5578C95.1457 13.5578 96.4243 13.4986 97.6954 13.5714C99.6924 13.6857 101.455 14.384 102.745 15.9911C103.852 17.3714 104.114 19.0131 104.067 20.7198C104.023 22.3761 103.614 23.9238 102.532 25.2301C101.212 26.8229 99.4643 27.5932 97.4418 27.6493C94.9193 27.7193 92.3936 27.6705 89.8693 27.68C89.6624 27.6808 89.6035 27.6197 89.5967 27.4105C89.5653 26.4367 89.5582 26.437 90.4736 26.1484C91.1842 25.9244 91.1842 25.9244 91.1842 25.1638C91.1842 22.0014 91.1789 18.8391 91.1925 15.6767C91.194 15.3687 91.1092 15.2119 90.8123 15.1594C90.6957 15.1388 90.5827 15.0955 90.4689 15.0596C89.57 14.7755 89.5811 14.7754 89.5953 13.8265C89.5991 13.5649 89.6963 13.522 89.9246 13.5235C91.2398 13.5319 92.5551 13.5276 93.8705 13.5276V13.5578Z" fill="#014593"/>
<path fill-rule="evenodd" clip-rule="evenodd" d="M22.5308 15.7142C22.5308 15.807 22.529 15.9 22.5312 15.9928C22.5393 16.3355 22.4157 16.8047 22.5911 16.9891C22.8166 17.2264 23.2916 17.0338 23.6564 17.0715C23.8935 17.0959 23.9504 16.9924 23.9409 16.7749C23.9258 16.4305 23.9365 16.0848 23.9373 15.7397C23.9376 15.6213 23.9207 15.4941 24.0678 15.4389C24.3392 15.3371 24.6171 15.3255 24.8821 15.4375C25.1339 15.5439 25.0203 15.7861 25.022 15.967C25.0325 17.121 25.0274 17.114 26.172 17.0752C26.3884 17.0677 26.439 17.0002 26.4335 16.799C26.4207 16.3347 26.4383 15.8697 26.4265 15.4054C26.418 15.0647 26.5722 14.6278 26.3577 14.4136C26.1945 14.2508 25.7568 14.3629 25.4413 14.3527C25.428 14.3523 25.4145 14.3513 25.4015 14.3528C25.2303 14.3723 25.1665 14.2985 25.171 14.1254C25.1803 13.7673 25.1771 13.4086 25.1714 13.0502C25.1697 12.9512 25.2215 12.8198 25.1006 12.7619C24.7218 12.5807 24.325 12.5859 23.9394 12.723C23.6541 12.8245 23.8194 13.0902 23.7933 13.2807C23.7682 13.4631 23.7676 13.6544 23.7921 13.837C23.8452 14.2339 23.7266 14.4301 23.2909 14.3573C23.1231 14.3293 22.9458 14.3634 22.7743 14.3501C22.5819 14.3353 22.5209 14.4094 22.5273 14.5991C22.5397 14.9705 22.531 15.3424 22.5308 15.7142ZM24.4773 11.2473C26.7891 11.2473 29.101 11.2537 31.4128 11.2394C31.7193 11.2375 31.7812 11.3251 31.7797 11.616C31.7671 13.8216 31.769 16.0275 31.7781 18.2331C31.7791 18.473 31.7038 18.6226 31.5095 18.7578C30.9094 19.1757 30.2341 19.3382 29.5207 19.3678C28.6219 19.4053 27.75 19.2561 26.9019 18.9554C25.2914 18.3845 23.6797 18.3892 22.0662 18.9511C20.8913 19.3603 19.6953 19.5218 18.4664 19.2223C18.3506 19.1941 18.2358 19.159 18.1246 19.1165C17.2869 18.7962 17.1873 18.6507 17.1873 17.7624C17.1873 15.7426 17.2002 13.7227 17.1763 11.7032C17.1715 11.3018 17.2928 11.2354 17.6613 11.2382C19.9331 11.256 22.2053 11.2473 24.4773 11.2473Z" fill="#014593"/>
<path fill-rule="evenodd" clip-rule="evenodd" d="M143.999 27.6764C142.046 27.6764 140.093 27.6695 138.139 27.6836C137.841 27.6857 137.759 27.6108 137.764 27.3101C137.779 26.4237 137.765 26.4235 138.624 26.1527C139.352 25.9235 139.352 25.9235 139.352 25.141C139.352 21.9785 139.348 18.816 139.359 15.6535C139.36 15.3642 139.282 15.2239 138.997 15.1602C138.688 15.091 138.392 14.96 138.083 14.8886C137.822 14.8283 137.764 14.6892 137.766 14.438C137.772 13.5231 137.763 13.5231 138.672 13.5231C142.246 13.5231 145.821 13.5294 149.395 13.5138C149.77 13.5122 149.854 13.6226 149.847 13.9781C149.826 15.1736 149.831 16.3699 149.845 17.5656C149.848 17.8384 149.767 17.8962 149.494 17.9355C148.75 18.0428 148.325 17.7898 148.099 17.0517C147.925 16.4868 147.602 15.969 147.362 15.4227C147.272 15.217 147.169 15.1209 146.925 15.1238C145.742 15.1383 144.559 15.1369 143.377 15.125C143.132 15.1225 143.061 15.1926 143.063 15.4383C143.074 16.7671 143.075 18.0959 143.063 19.4245C143.06 19.6866 143.148 19.7343 143.386 19.7063C144.533 19.5723 145.684 19.4646 146.829 19.3191C147.189 19.2734 147.321 19.3402 147.296 19.7303C147.261 20.2727 147.271 20.8199 147.294 21.3638C147.306 21.6584 147.204 21.7234 146.931 21.6905C145.824 21.5572 144.714 21.4424 143.607 21.3145C143.068 21.2522 143.068 21.2459 143.068 21.7928C143.068 23.0949 143.08 24.3973 143.06 25.6992C143.055 26.0235 143.158 26.089 143.459 26.0851C144.708 26.0689 145.957 26.0727 147.206 26.0833C147.434 26.0852 147.556 26.0233 147.654 25.8054C148.005 25.0188 148.393 24.2483 148.742 23.4609C148.854 23.209 148.98 23.105 149.269 23.1102C150.229 23.1275 150.229 23.1141 150.229 24.0872C150.229 25.1635 150.217 26.24 150.237 27.316C150.243 27.6239 150.149 27.6852 149.858 27.6832C147.905 27.67 145.952 27.6764 143.999 27.6764Z" fill="#014593"/>
<path fill-rule="evenodd" clip-rule="evenodd" d="M127.933 17.6972C127.933 18.4399 127.952 19.1832 127.925 19.9249C127.913 20.2541 128.027 20.3393 128.329 20.31C128.672 20.2767 129.019 20.2899 129.361 20.2523C130.356 20.1428 131.042 19.5491 131.278 18.6099C131.408 18.0884 131.423 17.5557 131.351 17.0291C131.184 15.8092 130.513 15.2074 129.28 15.1448C128.949 15.1279 128.616 15.15 128.286 15.1254C128.016 15.1051 127.918 15.1807 127.926 15.4694C127.947 16.2115 127.933 16.9545 127.933 17.6972ZM124.211 20.6057C124.211 18.9718 124.199 17.3375 124.221 15.7038C124.226 15.3542 124.112 15.1998 123.789 15.1451C123.66 15.1232 123.536 15.0685 123.411 15.0236C123.165 14.9349 122.778 14.9474 122.704 14.741C122.59 14.4216 122.653 14.0368 122.653 13.6796C122.653 13.4622 122.832 13.5261 122.95 13.5255C123.813 13.5209 124.677 13.5198 125.54 13.5237C127.28 13.5316 129.02 13.5336 130.76 13.5586C131.399 13.5677 132.022 13.7106 132.625 13.9316C134.492 14.6168 135.453 16.23 135.167 18.1982C134.9 20.0284 133.738 21.2236 131.777 21.688C130.64 21.9575 129.482 21.913 128.328 21.9023C128.03 21.8995 127.918 21.9577 127.925 22.2868C127.948 23.3758 127.946 24.4657 127.925 25.5546C127.92 25.8616 128.022 25.9624 128.311 26.0124C128.82 26.1005 129.319 26.2428 129.825 26.3506C130.015 26.3912 130.104 26.455 130.107 26.6809C130.12 27.6763 130.13 27.6762 129.134 27.6762C127.088 27.6762 125.043 27.671 122.997 27.6825C122.722 27.6841 122.639 27.6155 122.641 27.3332C122.649 26.4245 122.636 26.4244 123.513 26.1468C124.211 25.9261 124.211 25.9261 124.211 25.189V20.6057Z" fill="#014593"/>
<path fill-rule="evenodd" clip-rule="evenodd" d="M83.7128 19.4228C83.7128 18.2137 83.7047 17.0045 83.719 15.7956C83.7221 15.529 83.6513 15.3903 83.3869 15.3071C82.9831 15.18 82.5988 14.9914 82.1958 14.8611C81.9601 14.7851 81.9051 14.6572 81.9054 14.4265C81.9066 13.523 81.8991 13.523 82.7821 13.523C84.0977 13.523 85.4134 13.5326 86.7287 13.5159C87.0327 13.512 87.0711 13.6133 87.1104 13.8954C87.1997 14.537 86.9908 14.931 86.3553 15.0806C85.7115 15.2322 85.5388 15.6234 85.5487 16.2818C85.579 18.3008 85.5259 20.321 85.5054 22.3406C85.4991 22.9528 85.4672 23.5634 85.3252 24.1607C84.847 26.1717 83.2541 27.5343 81.0537 27.8284C79.9228 27.9796 78.7986 27.9651 77.6956 27.654C75.3528 26.9933 74.0703 25.1914 74.055 22.5281C74.0421 20.2556 74.044 17.983 74.0612 15.7106C74.0638 15.3709 73.9708 15.1931 73.6379 15.1436C73.5604 15.1321 73.487 15.0941 73.4115 15.0691C72.4934 14.7649 72.4989 14.7652 72.5565 13.7748C72.5674 13.5887 72.6185 13.5198 72.8097 13.5202C74.9359 13.525 77.0621 13.5232 79.1883 13.5238C79.2662 13.5238 79.3906 13.5088 79.3983 13.5901C79.4241 13.8668 79.3915 14.1502 79.4314 14.4238C79.492 14.839 79.1948 14.8501 78.9328 14.9305C78.5552 15.0462 78.0603 15.0733 77.8412 15.3306C77.6154 15.5956 77.7783 16.0948 77.7771 16.4911C77.7714 18.551 77.7756 20.6109 77.7736 22.6708C77.7733 23.0969 77.7859 23.5212 77.8884 23.9371C78.2677 25.475 79.6487 26.2939 81.3025 25.963C82.7446 25.6745 83.6957 24.581 83.7689 23.09C83.7987 22.4803 83.7743 21.8679 83.7744 21.2566C83.7745 20.6453 83.7744 20.0341 83.7744 19.4228H83.7128Z" fill="#014593"/>
<path fill-rule="evenodd" clip-rule="evenodd" d="M113.764 21.8688C113.116 20.2015 112.513 18.5741 111.938 16.9033C111.869 16.9673 111.855 16.9743 111.851 16.9852C111.295 18.5426 110.74 20.1004 110.183 21.6575C110.107 21.8698 110.236 21.8697 110.383 21.8695C111.484 21.8682 112.585 21.8688 113.764 21.8688ZM117.06 27.6764C116.051 27.6763 115.041 27.6675 114.032 27.6823C113.772 27.6862 113.695 27.616 113.695 27.3522C113.694 26.4261 113.683 26.4261 114.551 26.1523C115.28 25.9225 115.28 25.9225 115.014 25.2115C114.829 24.715 114.637 24.2207 114.461 23.721C114.394 23.5327 114.296 23.4587 114.087 23.4601C112.666 23.4695 111.245 23.4695 109.824 23.4601C109.614 23.4587 109.518 23.5329 109.452 23.7222C109.244 24.3229 109.031 24.9226 108.799 25.5145C108.721 25.7145 108.758 25.7875 108.958 25.8527C109.411 26.0009 109.853 26.1832 110.305 26.3335C110.533 26.4094 110.64 26.5129 110.637 26.7803C110.628 27.6762 110.641 27.6764 109.757 27.6764C108.508 27.6764 107.26 27.6713 106.011 27.6809C105.784 27.6827 105.714 27.6407 105.685 27.3858C105.609 26.72 105.769 26.2319 106.453 25.9981C106.761 25.8927 106.907 25.6418 107.021 25.3379C108.46 21.519 109.913 17.706 111.35 13.8863C111.457 13.6013 111.589 13.5068 111.89 13.5156C112.673 13.5381 113.458 13.5369 114.241 13.5157C114.518 13.5081 114.625 13.6084 114.719 13.8583C116.166 17.7304 117.632 21.5955 119.069 25.4713C119.207 25.8441 119.435 26.012 119.764 26.1456C120.431 26.4161 120.428 26.4239 120.428 27.1222C120.428 27.6763 120.428 27.6763 119.889 27.6764H117.06Z" fill="#014593"/>
<path fill-rule="evenodd" clip-rule="evenodd" d="M153.669 25.0093C153.669 24.5175 153.687 24.0248 153.662 23.5343C153.648 23.2425 153.767 23.2201 154.022 23.1811C154.775 23.066 155.203 23.3523 155.487 24.0573C155.758 24.7304 156.154 25.3532 156.496 25.9978C156.557 26.1131 156.603 26.2326 156.759 26.2695C157.754 26.5041 158.733 26.5444 159.661 26.0243C160.861 25.3519 160.96 24.0264 159.874 23.1907C159.331 22.7735 158.701 22.5207 158.08 22.2532C157.202 21.8753 156.323 21.4985 155.532 20.9534C153.94 19.8554 153.281 18.0002 153.856 16.1918C154.359 14.6149 155.586 13.8317 157.092 13.4971C159.171 13.0355 161.208 13.3059 163.18 14.0983C163.352 14.1673 163.426 14.2511 163.424 14.4447C163.414 15.3618 163.413 16.279 163.424 17.1959C163.427 17.4202 163.361 17.488 163.133 17.4945C162.112 17.5235 162.113 17.5309 161.603 16.648C161.311 16.1425 161.017 15.6381 160.725 15.1325C160.652 15.0062 160.592 14.8764 160.421 14.8459C159.721 14.7212 159.022 14.6669 158.336 14.9151C157.123 15.3542 156.819 16.7379 157.736 17.6427C158.208 18.1077 158.795 18.39 159.385 18.6664C160.238 19.0657 161.123 19.394 161.952 19.8441C163.821 20.8594 164.656 22.9105 163.999 24.8534C163.738 25.6258 163.242 26.2152 162.59 26.6837C161.45 27.5019 160.147 27.8167 158.774 27.9047C157.079 28.0135 155.482 27.6274 153.943 26.9381C153.725 26.8402 153.656 26.7151 153.664 26.4844C153.681 25.9933 153.669 25.5011 153.669 25.0093Z" fill="#014593"/>
<path fill-rule="evenodd" clip-rule="evenodd" d="M9.79975 9.81085C9.99746 9.81732 10.1412 9.71335 10.1909 9.53974C10.2481 9.34027 10.0375 9.32272 9.92429 9.26128C9.6677 9.12237 9.38166 9.0654 9.09491 9.02535C8.98384 9.00987 8.879 9.0149 8.94411 9.19226C9.04799 9.47511 9.50924 9.81947 9.79975 9.81085ZM7.50451 9.20088C7.26411 9.13075 7.02786 9.06596 6.79488 8.9912C6.72052 8.96726 6.64863 8.92458 6.58656 8.87631C6.41804 8.74554 6.17118 8.58317 6.22137 8.39296C6.27642 8.18423 6.56469 8.29681 6.74398 8.30112C7.71156 8.32402 8.6832 8.21128 9.64648 8.37349C9.92709 8.4208 10.1953 8.51096 10.3301 8.79253C10.42 8.98027 10.602 8.94149 10.7447 8.97628C11.0657 9.05455 11.3944 9.10195 11.7201 9.16123C11.8432 9.18365 12.0093 9.1495 11.9854 9.36277C11.9653 9.54014 11.8378 9.55833 11.6944 9.55976C11.6233 9.5604 11.5524 9.57851 11.4541 9.62152C11.8203 9.72812 11.9538 9.92359 11.8262 10.2822C11.6964 10.647 11.4242 10.6876 11.0964 10.6898C10.5805 10.6931 10.0599 10.6313 9.55049 10.7707C9.26549 10.8488 8.99039 10.9465 8.79906 11.1882C8.72749 11.2786 8.6185 11.3783 8.68344 11.5047C8.74161 11.6178 8.87445 11.5641 8.97339 11.5646C9.73073 11.5688 10.4885 11.5809 11.2453 11.5603C11.5635 11.5517 11.6018 11.6541 11.4996 11.9211C11.3026 12.4361 10.8906 12.6786 10.3337 12.5787C10.1513 12.546 9.97416 12.4801 9.79113 12.456C9.59749 12.4306 9.36642 12.3777 9.24451 12.5829C9.12826 12.7786 9.18411 12.996 9.29932 13.1879C9.4794 13.488 9.72953 13.7251 9.99251 13.9511C10.5261 14.4097 11.0714 14.8564 11.5457 15.3791C12.0161 15.8975 12.3854 16.472 12.523 17.1742C12.6099 17.618 12.5668 17.6652 12.128 17.5572C10.2626 17.0979 8.39844 16.6337 6.5311 16.1822C6.25536 16.1155 6.14254 16.0019 6.15419 15.6996C6.17461 15.1671 6.18722 14.6362 6.37097 14.1307C6.46536 13.8713 6.38429 13.8088 6.12914 13.8025C5.35975 13.7835 5.35751 13.7744 5.61714 13.0519C5.76993 12.6265 5.94906 12.2121 6.18562 11.8257C6.30179 11.636 6.25057 11.5593 6.03666 11.5678C5.99685 11.5694 5.956 11.5732 5.91722 11.5668C5.71671 11.5339 5.43546 11.6781 5.33246 11.4822C5.24773 11.3212 5.47281 11.1328 5.57286 10.9676C5.85507 10.5022 6.16257 10.0537 6.53166 9.64889C6.72914 9.43234 6.92948 9.26407 7.24847 9.32136C7.33727 9.33724 7.43741 9.3283 7.50451 9.20088Z" fill="#AB9A88"/>
<path fill-rule="evenodd" clip-rule="evenodd" d="M40.0325 9.03672C39.6767 9.00441 39.3549 9.11467 39.0476 9.25845C38.9262 9.31526 38.6931 9.33592 38.779 9.56507C38.8506 9.75624 39.0186 9.82909 39.2274 9.80962C39.5651 9.77811 39.9146 9.45233 40.0325 9.03672ZM41.5777 9.10502C41.7783 9.29244 41.9504 9.25678 42.0977 9.23675C42.5278 9.17811 42.7274 9.4114 42.86 9.76973C43.1619 10.5857 43.0217 11.3623 42.6561 12.1171C42.2661 12.922 41.6711 13.5954 41.2067 14.353C40.7915 15.0305 40.4509 15.7295 40.5444 16.5573C40.5658 16.7458 40.4871 16.8056 40.3113 16.8422C39.1059 17.0929 37.9029 17.3549 36.6992 17.6139C36.4236 17.6732 36.3894 17.557 36.4356 17.3099C36.6694 16.0596 37.4438 15.1654 38.369 14.381C38.9047 13.927 39.4827 13.5231 40.0385 13.0925C40.1955 12.971 40.3466 12.8404 40.4909 12.704C40.6143 12.5872 40.7898 12.4538 40.6824 12.2695C40.5789 12.0922 40.3987 12.2214 40.2517 12.2582C39.6233 12.4152 38.9907 12.4385 38.363 12.2731C38.0246 12.1838 37.7274 12.0115 37.5264 11.7042C37.3872 11.4916 37.4208 11.3983 37.69 11.4019C38.2345 11.4091 38.7794 11.4128 39.3236 11.3998C39.8021 11.3883 40.2402 11.2555 40.5713 10.8801C40.6406 10.8015 40.7348 10.7198 40.6924 10.6041C40.6436 10.4705 40.5107 10.5224 40.4138 10.5222C39.1255 10.5187 37.8371 10.5208 36.5487 10.5192C36.1462 10.5189 36.1028 10.4613 36.2665 10.0845C36.5724 9.38037 37.2167 9.19957 37.8864 9.10494C38.2125 9.0589 38.4908 9.08316 38.7095 8.71709C38.8983 8.40122 39.3372 8.31728 39.7094 8.31018C40.8229 8.28888 41.9372 8.30252 43.1305 8.30252C42.7521 8.89414 42.1814 8.99188 41.5777 9.10502Z" fill="#AB9A88"/>
<path fill-rule="evenodd" clip-rule="evenodd" d="M10.8138 29.2403C11.5567 28.8108 12.2198 28.4268 12.8837 28.0438C13.2065 27.8577 13.531 27.6803 13.92 27.6728C14.8855 27.654 15.3927 28.2696 15.2348 29.3277C14.9485 29.0378 14.6495 28.8035 14.2406 28.7972C14.1487 28.7958 14.041 28.7776 13.9799 28.8592C13.8998 28.966 14.0283 29.0207 14.0701 29.0909C14.299 29.4755 14.4131 29.8618 14.1268 30.3067C13.8941 30.0116 13.6701 29.7414 13.3049 29.6389C13.0839 29.577 13.0001 29.6117 13.0535 29.852C13.076 29.9536 13.1013 30.0645 13.0827 30.1632C13.0434 30.3709 13.0115 30.6399 12.8234 30.7187C12.6733 30.7817 12.5968 30.5114 12.4776 30.3996C11.9939 29.9466 11.0564 29.9209 10.3175 30.3619C10.125 30.4767 9.9424 30.6084 9.68556 30.7786C9.68556 30.3539 9.6937 29.9798 9.68381 29.6062C9.66577 28.9228 9.54825 28.2614 9.20397 27.6578C9.145 27.5544 9.08261 27.4513 9.00897 27.3582C8.65854 26.9148 8.65726 26.9164 9.16391 26.6268C9.35979 26.515 9.56229 26.4125 9.7478 26.2853C10.092 26.0489 10.0934 25.7539 9.73854 25.5306C9.32349 25.2693 8.88984 25.0377 8.46665 24.7891C8.34362 24.7167 8.1953 24.6746 8.10785 24.506C8.49322 24.2804 8.87796 24.0551 9.27091 23.825C9.16176 23.6535 8.99381 23.5975 8.85011 23.5141C8.38144 23.2419 8.3796 23.245 8.61577 22.7435C9.17532 21.5551 9.235 21.5368 10.3536 22.1901C11.1326 22.645 11.9163 23.0919 12.6923 23.5519C13.27 23.8943 13.4096 24.5992 12.99 25.1283C12.5782 25.6477 12.1204 26.1306 11.7122 26.6524C11.1423 27.3811 10.8357 28.2132 10.8138 29.2403Z" fill="#AB9A88"/>
<path fill-rule="evenodd" clip-rule="evenodd" d="M39.6406 23.7911C40.0882 24.0556 40.4637 24.2775 40.9044 24.5379C40.4458 24.8094 40.031 25.0557 39.6153 25.3004C39.5009 25.3677 39.3803 25.4249 39.2685 25.496C38.8536 25.7603 38.8494 26.0529 39.2648 26.317C39.5447 26.495 39.8334 26.6595 40.1243 26.8187C40.2765 26.902 40.3156 26.9697 40.1775 27.1106C39.4805 27.8221 39.2983 28.7202 39.274 29.6704C39.2652 30.0152 39.2727 30.3603 39.2727 30.7741C38.7547 30.4321 38.2852 30.0934 37.6796 30.0521C37.0425 30.0087 36.5249 30.1803 36.1891 30.7911C35.9259 30.5179 35.843 30.2273 35.9071 29.9003C35.9715 29.5713 35.8345 29.5716 35.5867 29.6656C35.265 29.7875 35.0415 30.0204 34.8381 30.3071C34.5317 29.8641 34.6783 29.4783 34.8899 29.0923C34.9298 29.0198 35.0589 28.9664 34.9795 28.8597C34.9185 28.7778 34.8108 28.7936 34.719 28.7976C34.3219 28.8149 34.0158 29.0103 33.7286 29.3455C33.6182 28.8287 33.6706 28.3824 34.0239 28.0393C34.4034 27.6708 34.8879 27.5774 35.3932 27.7345C36.0595 27.9417 36.6066 28.3839 37.2168 28.703C37.4165 28.8074 37.6031 28.9365 37.8023 29.042C37.9003 29.0939 38.0076 29.2291 38.1141 29.1339C38.1696 29.0845 38.1506 28.9322 38.1383 28.8295C38.0417 28.0215 37.7549 27.2854 37.2465 26.6487C36.8495 26.1514 36.4137 25.6848 36.0177 25.1865C35.5402 24.5858 35.6553 23.922 36.31 23.5314C37.3016 22.94 38.3099 22.3769 39.3031 21.7882C39.5387 21.6484 39.6872 21.6882 39.8329 21.9011C40.0584 22.2303 40.2626 22.5705 40.4379 22.9294C40.5487 23.1563 40.5433 23.3144 40.2766 23.4268C40.0728 23.5125 39.8892 23.6462 39.6406 23.7911Z" fill="#AB9A88"/>
<path fill-rule="evenodd" clip-rule="evenodd" d="M24.4854 8.29481C26.5167 8.29481 28.548 8.29943 30.5793 8.28946C30.8555 8.2881 31.0161 8.33039 30.9725 8.65273C30.958 8.75989 30.9323 8.90183 31.1066 8.93645C31.6811 9.05055 31.3386 9.49249 31.3667 9.76911C31.3995 10.0911 31.0747 9.93978 30.9091 9.95175C30.5657 9.97648 30.2189 9.94919 29.8742 9.96268C29.6468 9.97161 29.5447 9.91736 29.5408 9.65821C29.5304 8.94451 29.5176 8.94475 28.7997 8.94451H28.5607C27.787 8.94459 27.7809 8.94411 27.727 9.70201C27.7139 9.88616 27.6568 9.96403 27.4682 9.961C27.0169 9.95382 26.5652 9.95326 26.114 9.9614C25.9225 9.96483 25.8735 9.88257 25.8571 9.70153C25.7816 8.86696 25.5015 8.62201 24.6566 8.62137C24.5105 8.62121 24.3645 8.62018 24.2185 8.62153C23.5033 8.62792 23.1649 8.91555 23.11 9.63499C23.0892 9.90603 22.9988 9.97217 22.7525 9.96308C22.3548 9.94848 21.9557 9.94864 21.5579 9.96316C21.3212 9.97185 21.2349 9.89813 21.2306 9.64951C21.2184 8.94619 21.2054 8.94475 20.5063 8.94451H20.1877C19.4478 8.94459 19.4421 8.94443 19.4154 9.67002C19.4085 9.85919 19.3763 9.96834 19.1532 9.96228C18.7154 9.95055 18.2769 9.95151 17.839 9.96204C17.6256 9.96715 17.5559 9.87539 17.5688 9.67648C17.5782 9.53103 17.5355 9.37337 17.5774 9.2406C17.6842 8.9039 18.1215 8.7397 18.0749 8.31443C18.1938 8.30789 18.3125 8.29576 18.4313 8.29568C20.4493 8.29449 22.4674 8.29481 24.4854 8.29481Z" fill="#AB9A88"/>
<path fill-rule="evenodd" clip-rule="evenodd" d="M24.6871 4.57858C24.794 4.33435 24.9397 4.1206 24.861 3.85188C24.8007 3.64571 24.7014 3.44656 24.4791 3.45382C24.2394 3.46164 24.1237 3.65967 24.1076 3.89751C24.0978 4.04345 24.0773 4.19999 24.1626 4.32525C24.2992 4.52616 24.2534 4.61097 24.0215 4.66722C23.6333 4.76153 23.3222 4.98621 23.0985 5.31829C23.0162 5.4406 22.9285 5.53196 22.7759 5.47818C22.6196 5.42329 22.6779 5.2768 22.6768 5.16781C22.6709 4.62294 22.6479 4.07624 22.6829 3.53352C22.7081 3.14169 22.5749 3.09749 22.2366 3.18549C21.212 3.45206 20.2183 3.7673 19.4755 4.586C19.2849 4.79616 19.1345 5.02259 19.0864 5.31095C19.0382 5.59954 18.7728 5.68603 18.5518 5.48696C18.36 5.31438 18.3422 5.09656 18.4258 4.86581C18.5002 4.66044 18.6332 4.55672 18.8564 4.65422C18.9564 4.69794 18.9975 4.63826 19.0483 4.57228C19.8825 3.48765 21.0891 3.06932 22.3511 2.82613C24.3832 2.43462 26.3942 2.53172 28.3235 3.36238C28.9246 3.62121 29.4745 3.96964 29.8705 4.51443C29.9382 4.6077 29.979 4.69977 30.149 4.64807C30.4623 4.55281 30.5438 4.79759 30.5685 5.03153C30.5974 5.30608 30.5194 5.53866 30.1903 5.58023C30.0443 5.59858 29.9261 5.5689 29.895 5.39656C29.7671 4.68797 29.2601 4.27898 28.6969 3.93669C28.0685 3.55467 27.3723 3.33972 26.6561 3.17353C26.3505 3.10251 26.3246 3.21477 26.3293 3.46036C26.34 4.01839 26.3347 4.57674 26.3309 5.13501C26.3301 5.26132 26.3719 5.4189 26.2057 5.47818C26.038 5.53794 25.9425 5.43884 25.8513 5.3036C25.5781 4.8986 25.1643 4.70017 24.6871 4.57858Z" fill="#AB9A88"/>
<path fill-rule="evenodd" clip-rule="evenodd" d="M15.6926 12.36C16.1745 12.3465 16.6102 12.3798 16.8073 12.8904C16.836 12.9649 16.8828 13.0462 16.8299 13.1153C16.7689 13.195 16.6868 13.1322 16.6125 13.1137C16.2408 13.021 15.8864 13.0556 15.6248 13.3566C15.3356 13.6895 15.3996 14.0695 15.5549 14.4443C15.7773 14.9811 15.773 15.0216 15.1944 14.9697C14.6494 14.9208 14.2953 15.1053 14.0267 15.5695C13.829 15.9111 13.5726 16.2187 13.3179 16.5757C12.9585 15.9758 12.5463 15.4661 11.8528 15.1092C12.5712 14.8507 13.2001 14.6246 13.8288 14.3981C13.941 14.3576 14.0498 14.3026 14.1652 14.2771C14.4396 14.2166 14.4714 14.0737 14.3756 13.8272C14.1883 13.3454 14.0338 12.8518 13.9495 12.3392C13.8725 11.8705 14.0911 11.4588 14.5 11.3102C14.5842 11.2796 14.6751 11.2139 14.7575 11.2951C14.8233 11.3599 14.7826 11.4469 14.7574 11.5195C14.679 11.7455 14.7124 11.9536 14.8326 12.1625C15.6374 11.1353 16.2037 10.9734 16.8254 11.613C16.3853 11.7598 15.8731 11.7944 15.6926 12.36Z" fill="#AB9A88"/>
<path fill-rule="evenodd" clip-rule="evenodd" d="M33.3069 12.3651C33.0453 11.8174 32.5876 11.7394 32.1513 11.6243C32.6833 10.9413 33.4677 11.1584 34.111 12.182C34.2599 11.9433 34.2814 11.7141 34.1982 11.468C34.1285 11.2615 34.2205 11.2395 34.3966 11.2815C34.8352 11.3863 35.1131 11.8687 35.0114 12.3867C34.9141 12.8821 34.7696 13.3665 34.5814 13.8342C34.4782 14.0905 34.5448 14.199 34.8008 14.2824C35.4059 14.4797 36.0032 14.7017 36.6009 14.9208C36.7347 14.9699 36.8895 14.9794 37.0288 15.1341C36.4812 15.4258 36.0874 15.8641 35.7872 16.3879C35.6652 16.6008 35.5773 16.4678 35.4981 16.3621C35.2434 16.0221 34.9747 15.6899 34.7515 15.3297C34.5841 15.0595 34.3863 14.9278 34.0718 14.9805C34.033 14.9869 33.992 14.9843 33.9524 14.9809C33.7169 14.9606 33.4041 15.0884 33.2646 14.9235C33.1177 14.7497 33.3901 14.5306 33.4561 14.3227C33.7161 13.5029 33.2196 12.9362 32.3719 13.1051C32.2874 13.122 32.1911 13.2131 32.1233 13.1056C32.0695 13.0201 32.1317 12.9228 32.1754 12.8431C32.3244 12.5714 32.5424 12.39 32.8631 12.3667C32.9916 12.3572 33.1214 12.3651 33.3069 12.3651Z" fill="#AB9A88"/>
<path fill-rule="evenodd" clip-rule="evenodd" d="M24.4621 7.97635C24.0913 7.9762 23.7203 7.9734 23.3495 7.97755C23.1972 7.97915 23.0919 7.94827 23.0947 7.76332C23.1028 7.22053 23.059 6.67255 23.1199 6.13622C23.2091 5.35032 23.7898 4.90447 24.5793 4.93279C25.2834 4.95808 25.8168 5.49018 25.858 6.24928C25.8846 6.73798 25.856 7.22947 25.8675 7.71928C25.8728 7.94268 25.7635 7.98306 25.5747 7.97891C25.204 7.97085 24.833 7.97651 24.4621 7.97635Z" fill="#AB9A88"/>
<path fill-rule="evenodd" clip-rule="evenodd" d="M24.4336 10.7655C22.4155 10.7656 20.3974 10.7669 18.3793 10.7632C18.2126 10.7629 17.9898 10.846 17.9881 10.5269C17.9863 10.2161 18.1978 10.2789 18.3723 10.2788C22.4483 10.2773 26.5244 10.2776 30.6005 10.2777C30.7844 10.2777 30.9806 10.2369 30.9719 10.5401C30.9636 10.8303 30.7656 10.7636 30.6075 10.7638C28.5495 10.7665 26.4916 10.7655 24.4336 10.7655Z" fill="#AB9A88"/>
<path fill-rule="evenodd" clip-rule="evenodd" d="M34.391 27.0485C33.9461 27.0786 33.465 26.9703 33.0538 26.6326C32.6195 26.2758 32.5244 25.6244 32.8342 25.1619C33.1045 24.7584 33.684 24.6107 34.1002 24.8466C34.1901 24.8976 34.2788 24.9659 34.3414 25.0469C34.4526 25.1903 34.5592 25.3259 34.2405 25.3805C33.9346 25.4329 33.7583 25.6556 33.7749 25.9801C33.7909 26.2922 33.9952 26.4431 34.2817 26.506C34.7881 26.6175 35.2456 26.437 35.704 26.2667C35.8152 26.2255 35.9191 26.1645 36.0267 26.1132C36.2536 26.0054 36.3489 26.196 36.4342 26.3256C36.557 26.5122 36.347 26.5374 36.2488 26.5927C35.6435 26.9338 35.1745 27.0499 34.391 27.0485Z" fill="#AB9A88"/>
<path fill-rule="evenodd" clip-rule="evenodd" d="M18.9345 7.97668C17.9912 7.97668 17.9912 7.97668 17.9912 7.01724C17.9912 6.87123 17.991 6.72506 17.9912 6.57905C17.992 6.08277 18.143 5.92718 18.6471 5.90293C19.2792 5.87261 19.8125 6.32468 19.8856 6.95277C20.0046 7.97668 20.0046 7.97668 18.9345 7.97668Z" fill="#AB9A88"/>
<path fill-rule="evenodd" clip-rule="evenodd" d="M30.0179 7.97665C29.9914 7.97665 29.963 7.98295 29.9386 7.97569C29.6558 7.89104 29.2347 8.18984 29.09 7.81484C28.8625 7.22442 29.1203 6.44952 29.5397 6.14099C29.9296 5.85415 30.455 5.82519 30.8114 6.05218C30.9468 6.13827 30.9696 6.24894 30.9689 6.38801C30.9665 6.81271 30.9564 7.2379 30.9725 7.66205C30.9818 7.90564 30.8994 7.99907 30.6546 7.98C30.4437 7.96349 30.2303 7.97657 30.0179 7.97665Z" fill="#AB9A88"/>
<path fill-rule="evenodd" clip-rule="evenodd" d="M27.4642 7.97661C27.2123 7.97661 26.9595 7.96328 26.7085 7.98004C26.402 8.00046 26.2834 7.94142 26.4575 7.61637C26.714 7.1378 26.9383 6.64208 27.1793 6.15514C27.2363 6.03993 27.2743 5.90972 27.4477 5.90046C27.6412 5.89009 27.692 6.02557 27.7551 6.15682C28.0017 6.67033 28.2399 7.18807 28.4971 7.69615C28.6231 7.94501 28.5298 7.98833 28.2996 7.97916C28.0215 7.96807 27.7427 7.97653 27.4642 7.97661Z" fill="#AB9A88"/>
<path fill-rule="evenodd" clip-rule="evenodd" d="M21.5018 7.9764C21.1967 7.97624 20.8916 7.97122 20.5866 7.97808C20.386 7.98263 20.3621 7.9093 20.4446 7.74143C20.7131 7.19417 20.9661 6.63917 21.2412 6.09542C21.3853 5.81074 21.6083 5.82023 21.7575 6.11321C22.0221 6.63295 22.2675 7.16249 22.5315 7.68239C22.6499 7.91553 22.5852 7.98917 22.3374 7.97912C22.0593 7.96795 21.7804 7.97656 21.5018 7.9764Z" fill="#AB9A88"/>
<path fill-rule="evenodd" clip-rule="evenodd" d="M35.7798 10.7859C36.2007 11.1156 36.6214 10.9528 37.0349 10.8916C37.4056 10.8369 37.7335 10.9108 38.0157 11.2016C37.4642 11.1813 36.9602 11.3726 36.4386 11.4742C35.9688 11.5659 35.7577 11.336 35.7798 10.7859Z" fill="#AB9A88"/>
<path fill-rule="evenodd" clip-rule="evenodd" d="M10.9041 11.3896C11.3052 10.989 11.7501 11.0503 12.1732 11.1038C12.4794 11.1426 12.7687 11.2084 13.0616 11.0493C13.2445 10.9499 13.2767 11.0732 13.2338 11.2145C13.1596 11.4587 13.0157 11.6404 12.7338 11.6518C12.5478 11.6593 12.3651 11.6459 12.1871 11.5756C11.7943 11.4206 11.377 11.3954 10.9041 11.3896Z" fill="#AB9A88"/>
<path fill-rule="evenodd" clip-rule="evenodd" d="M27.7922 5.07897C27.7704 5.29679 27.7564 5.56312 27.4622 5.56376C27.1962 5.5644 27.1544 5.31873 27.1479 5.09988C27.1413 4.87687 27.1819 4.64597 27.4524 4.63233C27.729 4.61836 27.776 4.84592 27.7922 5.07897Z" fill="#AB9A88"/>
<path fill-rule="evenodd" clip-rule="evenodd" d="M21.8142 5.12345C21.8084 5.33281 21.7634 5.57145 21.4938 5.56395C21.2037 5.55597 21.1662 5.29379 21.1749 5.06345C21.1831 4.8473 21.2359 4.60627 21.5178 4.62837C21.7888 4.64975 21.814 4.88512 21.8142 5.12345Z" fill="#AB9A88"/>
<path fill-rule="evenodd" clip-rule="evenodd" d="M27.678 24.7166C27.678 25.341 27.6719 25.9655 27.6815 26.5898C27.6846 26.7933 27.6243 26.8774 27.4104 26.8663C27.1189 26.8512 26.8253 26.8498 26.5341 26.8667C26.3128 26.8795 26.2657 26.7841 26.2723 26.5869C26.2843 26.2285 26.2671 25.8693 26.2778 25.5109C26.2899 25.1115 25.9765 25.1476 25.7511 25.1451C25.5115 25.1425 25.1788 25.0909 25.1746 25.5033C25.1709 25.8619 25.161 26.2213 25.178 26.5792C25.1891 26.8128 25.1002 26.8799 24.8791 26.8664C24.6145 26.8502 24.3473 26.8503 24.0826 26.8664C23.863 26.8797 23.7713 26.8158 23.7833 26.5807C23.801 26.2362 23.7771 25.8897 23.7905 25.5448C23.8077 25.1005 23.4696 25.1429 23.2137 25.1445C22.9697 25.1459 22.6532 25.1232 22.6797 25.5461C22.7014 25.8902 22.6702 26.2375 22.6889 26.5819C22.7016 26.8169 22.611 26.8636 22.3928 26.868C21.2863 26.8902 21.2865 26.8965 21.2865 25.7935C21.2865 24.837 21.3026 23.8801 21.2776 22.9241C21.2689 22.595 21.3972 22.4641 21.6908 22.4327C21.7962 22.4214 21.9026 22.4129 22.0084 22.4136C22.6198 22.4174 22.6841 22.4825 22.6841 23.0856V23.4045C22.6841 24.1616 22.8311 24.2723 23.6065 24.1332C23.7703 24.1036 23.7891 24.0175 23.7883 23.8871C23.7861 23.5284 23.7999 23.1691 23.7833 22.8112C23.7734 22.5925 23.8605 22.4894 24.0662 22.4646C24.2105 22.4473 24.3547 22.4153 24.4989 22.415C25.1101 22.4138 25.1736 22.4807 25.1736 23.0871C25.1736 23.2598 25.1735 23.4325 25.1736 23.6052C25.1737 24.1305 25.1737 24.1305 25.7132 24.1307C26.2757 24.1308 26.2757 24.1308 26.2757 23.5625C26.2757 23.4031 26.2549 23.2402 26.2808 23.0852C26.3143 22.8847 26.1328 22.6063 26.4469 22.4987C26.8358 22.3656 27.2313 22.3592 27.6068 22.5501C27.7191 22.6072 27.6762 22.7413 27.6766 22.8432C27.6794 23.4677 27.6781 24.0921 27.678 24.7166Z" fill="white"/>
<path fill-rule="evenodd" clip-rule="evenodd" d="M22.5309 15.7142C22.531 15.3425 22.5397 14.9705 22.5273 14.5992C22.5209 14.4094 22.5819 14.3353 22.7743 14.3502C22.9458 14.3634 23.1231 14.3293 23.2909 14.3573C23.7267 14.4302 23.8452 14.234 23.7921 13.837C23.7676 13.6544 23.7682 13.4632 23.7933 13.2808C23.8194 13.0902 23.6541 12.8245 23.9394 12.7231C24.325 12.5859 24.7218 12.5808 25.1006 12.762C25.2215 12.8198 25.1697 12.9512 25.1714 13.0503C25.1771 13.4087 25.1803 13.7673 25.171 14.1255C25.1665 14.2985 25.2303 14.3723 25.4015 14.3529C25.4146 14.3514 25.428 14.3524 25.4413 14.3528C25.7568 14.3629 26.1945 14.2508 26.3577 14.4137C26.5722 14.6278 26.418 15.0647 26.4265 15.4054C26.4383 15.8697 26.4207 16.3347 26.4335 16.7991C26.439 17.0002 26.3884 17.0678 26.1721 17.0752C25.0274 17.1141 25.0325 17.1211 25.022 15.967C25.0203 15.7862 25.1339 15.5439 24.8821 15.4376C24.6171 15.3256 24.3392 15.3371 24.0678 15.4389C23.9207 15.4941 23.9376 15.6213 23.9373 15.7397C23.9365 16.0849 23.9258 16.4305 23.9409 16.775C23.9504 16.9925 23.8935 17.096 23.6564 17.0715C23.2916 17.0338 22.8166 17.2264 22.5911 16.9891C22.4157 16.8047 22.5393 16.3356 22.5312 15.9929C22.529 15.9 22.5308 15.8071 22.5309 15.7142Z" fill="white"/>
</svg>
