<svg width="48" height="38" viewBox="0 0 48 38" fill="none" xmlns="http://www.w3.org/2000/svg">
<path d="M10.7365 30.5561H17.3429H30.5558H37.1623V23.9496H30.5558H17.3429H10.7365V30.5561Z" fill="#FFDFBA"/>
<path fill-rule="evenodd" clip-rule="evenodd" d="M46.9547 0.00867047C47.4047 -0.0582199 47.8251 0.258064 47.8895 0.70978C47.9539 1.1615 47.6401 1.58018 47.1892 1.64459L28.028 4.38214C27.9198 4.71329 27.62 4.95608 27.2526 4.95608C26.9693 4.95608 26.7323 4.80495 26.5837 4.58859L21.7667 5.27649C22.1813 6.06431 22.9988 6.60769 23.9493 6.60769C24.406 6.60769 24.7751 6.97683 24.7751 7.4335V13.2141H27.2526C27.4722 13.2141 27.682 13.3009 27.8364 13.4561L30.8977 16.5174H33.859C36.1358 16.5174 37.988 18.3697 37.988 20.6464V27.2529V33.8593C37.988 36.1361 36.1358 37.9883 33.859 37.9883H14.0397C11.7629 37.9883 9.91063 36.1361 9.91063 33.8593V27.2529V20.6464C9.91063 18.3697 11.7629 16.5174 14.0397 16.5174H17.001L20.0623 13.4561C20.2167 13.3009 20.4264 13.2141 20.6461 13.2141H23.1235V8.1759C21.7015 7.88604 20.5454 6.86204 20.0639 5.51928L0.944021 8.25104C0.904382 8.25682 0.864743 8.2593 0.825931 8.2593C0.421285 8.2593 0.0678402 7.96284 0.00838216 7.55076C-0.0560307 7.09904 0.257776 6.68036 0.709492 6.61595L19.8451 3.8817C19.9764 1.72304 21.7576 0.00123821 23.9493 0.00123821C25.7372 0.00123821 27.2484 1.14993 27.8207 2.74209L46.9547 0.00867047ZM29.73 26.427V21.4722H18.1687V26.427H29.73ZM36.3364 21.4722V26.427H31.3816V21.4722H36.3364ZM11.5622 26.427H16.5171V21.4722H11.5622V26.427ZM36.3364 33.8593C36.3364 35.2252 35.2249 36.3367 33.859 36.3367H14.0397C12.6738 36.3367 11.5622 35.2252 11.5622 33.8593V28.0787H17.3429H30.5558H36.3364V33.8593ZM30.5558 19.8206H36.1952C35.8542 18.8594 34.9359 18.169 33.859 18.169H14.0397C12.9628 18.169 12.0445 18.8594 11.7035 19.8206H17.3429H30.5558ZM19.3364 16.5174L20.988 14.8658H26.9107L28.5623 16.5174H19.3364ZM26.1328 2.98405C25.7174 2.19623 24.8998 1.65285 23.9493 1.65285C22.7503 1.65285 21.7486 2.50921 21.5215 3.64304L26.1328 2.98405Z" fill="#014593"/>
</svg>
