<svg width="46" height="49" viewBox="0 0 46 49" fill="none" xmlns="http://www.w3.org/2000/svg">
<path d="M3.93441 44.8525H7.08195V32.2623H0.786865V44.8525V48H3.93441V44.8525Z" fill="#FFDFBA"/>
<path d="M41.7049 48H44.8525V44.8525V32.2623H38.5574V44.8525H41.7049V48Z" fill="#FFDFBA"/>
<path d="M13.3771 22.8197H32.2623C32.2623 18.7043 29.6341 15.2105 25.9672 13.92C24.9836 13.5659 23.9213 13.377 22.8197 13.377C21.7181 13.377 20.6558 13.5659 19.6722 13.92C16.0053 15.2105 13.3771 18.7043 13.3771 22.8197Z" fill="#FFDFBA"/>
<path fill-rule="evenodd" clip-rule="evenodd" d="M3.93443 45.6393H0.786885C0.351738 45.6393 0 45.2876 0 44.8517V29.114C0 28.6788 0.351738 28.3271 0.786885 28.3271H6.29508V22.8189C6.29508 22.3837 6.64682 22.032 7.08197 22.032H9.5221C9.83843 20.4842 11.0668 19.2669 12.6185 18.9616C12.886 15.109 15.3175 11.7214 18.8852 10.239V7.08197C18.8852 6.64682 19.237 6.29508 19.6721 6.29508H22.0328V0.786885C22.0328 0.351738 22.3845 0 22.8197 0C23.2548 0 23.6066 0.351738 23.6066 0.786885V6.29508H25.9672C26.4024 6.29508 26.7541 6.64682 26.7541 7.08197V10.239C30.3203 11.7191 32.7533 15.1082 33.0209 18.9624C34.5734 19.2669 35.8017 20.4842 36.1172 22.0328H38.5574C38.9925 22.0328 39.3443 22.3845 39.3443 22.8197V28.3279H44.8525C45.2876 28.3279 45.6393 28.6796 45.6393 29.1148V44.8525C45.6393 45.2876 45.2876 45.6393 44.8525 45.6393H41.7049H3.93443ZM38.5574 42.4918H7.08197H4.72131V44.0656H40.918V42.4918H38.5574ZM44.0656 29.9016V44.0656H42.4918V41.7049C42.4918 41.2698 42.1401 40.918 41.7049 40.918H39.3443V29.9016H44.0656ZM25.1803 7.86885H20.4598V9.71725C20.4987 9.70824 20.5385 9.70221 20.5783 9.69617C20.615 9.69061 20.6518 9.68504 20.688 9.67711C20.9217 9.62754 21.157 9.58505 21.3946 9.552C21.526 9.53312 21.6574 9.51502 21.7904 9.50164C22.0729 9.4741 22.3562 9.45757 22.6403 9.45285C22.6688 9.45248 22.6971 9.45014 22.7255 9.44779C22.7567 9.44521 22.788 9.44262 22.8197 9.44262C22.8556 9.44262 22.891 9.44569 22.9264 9.44877C22.9531 9.45109 22.9799 9.45341 23.007 9.45443C23.2863 9.45915 23.5656 9.47488 23.8442 9.50243C23.9646 9.51418 24.0837 9.53081 24.2032 9.54748L24.2526 9.55436C24.4831 9.58662 24.7121 9.62754 24.9395 9.67554C24.975 9.68291 25.0109 9.68841 25.0469 9.69391L25.0469 9.69391L25.047 9.69392C25.0916 9.70074 25.1363 9.70758 25.1803 9.71803V7.86885ZM19.9389 11.5129C21.312 11.0188 22.837 10.8944 24.2856 11.1423C24.7696 11.2249 25.2456 11.3492 25.706 11.5153C28.9078 12.6421 31.1347 15.5449 31.4392 18.8852H14.2001C14.5047 15.5449 16.7323 12.6413 19.9389 11.5129ZM32.2623 20.459H13.377C12.351 20.459 11.4759 21.1169 11.151 22.0328H34.4884C34.1634 21.1169 33.2884 20.459 32.2623 20.459ZM7.86885 23.6066H10.2295H35.4098H37.7705V29.1148V40.918H7.86885V29.1148V23.6066ZM6.29508 29.9016H1.57377V44.0656H3.14754V41.7049C3.14754 41.2698 3.49928 40.918 3.93443 40.918H6.29508V29.9016Z" fill="#014593"/>
<path d="M13.3771 39.3443C13.8122 39.3443 14.164 38.9925 14.164 38.5574V25.9672C14.164 25.5321 13.8122 25.1803 13.3771 25.1803C12.9419 25.1803 12.5902 25.5321 12.5902 25.9672V38.5574C12.5902 38.9925 12.9419 39.3443 13.3771 39.3443Z" fill="#014593"/>
<path d="M19.6721 39.3443C20.1073 39.3443 20.459 38.9925 20.459 38.5574V25.9672C20.459 25.5321 20.1073 25.1803 19.6721 25.1803C19.237 25.1803 18.8853 25.5321 18.8853 25.9672V38.5574C18.8853 38.9925 19.237 39.3443 19.6721 39.3443Z" fill="#014593"/>
<path d="M25.9672 39.3443C26.4023 39.3443 26.7541 38.9925 26.7541 38.5574V25.9672C26.7541 25.5321 26.4023 25.1803 25.9672 25.1803C25.532 25.1803 25.1803 25.5321 25.1803 25.9672V38.5574C25.1803 38.9925 25.532 39.3443 25.9672 39.3443Z" fill="#014593"/>
<path d="M32.2623 39.3443C32.6975 39.3443 33.0492 38.9925 33.0492 38.5574V25.9672C33.0492 25.5321 32.6975 25.1803 32.2623 25.1803C31.8272 25.1803 31.4755 25.5321 31.4755 25.9672V38.5574C31.4755 38.9925 31.8272 39.3443 32.2623 39.3443Z" fill="#014593"/>
<path d="M3.93447 36.1967C4.36962 36.1967 4.72135 35.845 4.72135 35.4098V32.2623C4.72135 31.8271 4.36962 31.4754 3.93447 31.4754C3.49932 31.4754 3.14758 31.8271 3.14758 32.2623V35.4098C3.14758 35.845 3.49932 36.1967 3.93447 36.1967Z" fill="#014593"/>
<path d="M41.705 36.1967C42.1401 36.1967 42.4919 35.845 42.4919 35.4098V32.2623C42.4919 31.8271 42.1401 31.4754 41.705 31.4754C41.2698 31.4754 40.9181 31.8271 40.9181 32.2623V35.4098C40.9181 35.845 41.2698 36.1967 41.705 36.1967Z" fill="#014593"/>
</svg>
