<svg width="48" height="32" viewBox="0 0 48 32" fill="none" xmlns="http://www.w3.org/2000/svg">
<path d="M40.5517 20.6899C36.8954 20.6899 33.931 23.6543 33.931 27.3106H47.1724C47.1724 23.6543 44.208 20.6899 40.5517 20.6899Z" fill="#FFDFBA"/>
<path d="M20.6896 12.414C20.6896 11.4995 19.9489 10.7588 19.0344 10.7588H9.10341C8.18893 10.7588 7.44824 11.4995 7.44824 12.414V14.0692H20.6896V12.414Z" fill="#FFDFBA"/>
<path fill-rule="evenodd" clip-rule="evenodd" d="M40.5517 16.5519C39.6554 16.5519 38.7989 16.7191 38.0019 17.0112L35.8121 8.25372C37.0742 8.13703 38.069 7.08517 38.069 5.79331C38.069 4.42448 36.955 3.31055 35.5862 3.31055H34.1263L27.6803 0.0871034C27.2706 -0.116483 26.7749 0.0482069 26.5697 0.457034C26.3652 0.865862 26.5308 1.36324 26.9396 1.56766L33.2201 4.70752L36.4386 17.5798C36.4513 17.6305 36.4742 17.6748 36.497 17.7187L36.4972 17.7193C36.5026 17.7296 36.5079 17.7399 36.5131 17.7503C35.6292 18.323 34.8753 19.0769 34.3026 19.9608C34.1901 19.9028 34.0668 19.8623 33.931 19.8623H24.5967L21.5172 10.6256V9.10366C21.5172 7.73483 20.4033 6.6209 19.0345 6.6209H9.10345C7.73462 6.6209 6.62069 7.73483 6.62069 9.10366V9.98007C2.90234 10.393 0 13.5519 0 17.3795V24.0002C0 24.4579 0.369931 24.8278 0.827586 24.8278H1.65517V25.6554C1.65517 28.849 4.25462 31.4485 7.44828 31.4485C10.6419 31.4485 13.2414 28.849 13.2414 25.6554V24.8278H33.931H34.7586V25.6554C34.7586 28.849 37.3581 31.4485 40.5517 31.4485C43.7454 31.4485 46.3448 28.849 46.3448 25.6554V24.8278H47.1724C47.6301 24.8278 48 24.4579 48 24.0002C48 19.8929 44.659 16.5519 40.5517 16.5519ZM36.4138 5.79331C36.4138 6.25014 36.043 6.6209 35.5862 6.6209C35.5437 6.6209 35.5043 6.63168 35.4651 6.64243C35.4479 6.64715 35.4307 6.65187 35.4132 6.65566L34.9903 4.96572H35.5862C36.043 4.96572 36.4138 5.33648 36.4138 5.79331ZM9.10345 8.27607C8.64662 8.27607 8.27586 8.64683 8.27586 9.10366V9.93124H19.8621V9.10366C19.8621 8.64683 19.4913 8.27607 19.0345 8.27607H9.10345ZM1.65517 17.3795C1.65517 14.1859 4.25462 11.5864 7.44828 11.5864H20.093L23.2146 20.9514C23.3272 21.2899 23.6433 21.5174 24 21.5174H33.5379C33.3501 22.0454 33.216 22.5974 33.1523 23.1726H12.4138H2.48276H1.65517V17.3795ZM7.44828 29.7933C9.72993 29.7933 11.5862 27.937 11.5862 25.6554V24.8278H3.31034V25.6554C3.31034 27.937 5.16662 29.7933 7.44828 29.7933ZM44.6897 25.6554C44.6897 27.937 42.8334 29.7933 40.5517 29.7933C38.2701 29.7933 36.4138 27.937 36.4138 25.6554V24.8278H44.6897V25.6554ZM35.5862 23.1726H45.5172H46.2861C45.883 20.3688 43.4657 18.2071 40.5517 18.2071C37.6378 18.2071 35.2196 20.3688 34.8174 23.1726H35.5862Z" fill="#014593"/>
</svg>
