<svg width="35" height="48" viewBox="0 0 35 48" fill="none" xmlns="http://www.w3.org/2000/svg">
<path d="M17.3793 30.6207C22.864 30.6207 27.3103 26.1744 27.3103 20.6897C27.3103 15.2049 22.864 10.7586 17.3793 10.7586C11.8945 10.7586 7.44824 15.2049 7.44824 20.6897C7.44824 26.1744 11.8945 30.6207 17.3793 30.6207Z" fill="#FFDFBA"/>
<path fill-rule="evenodd" clip-rule="evenodd" d="M4.13793 0H30.6207C32.9023 0 34.7586 1.85628 34.7586 4.13793V43.8621C34.7586 46.1437 32.9023 48 30.6207 48H4.13793C1.85628 48 0 46.1437 0 43.8621V4.13793C0 1.85628 1.85628 0 4.13793 0ZM30.6207 46.3448C31.9895 46.3448 33.1035 45.2309 33.1035 43.8621V4.13793C33.1035 2.7691 31.9895 1.65517 30.6207 1.65517H4.13793C2.7691 1.65517 1.65517 2.7691 1.65517 4.13793V43.8621C1.65517 45.2309 2.7691 46.3448 4.13793 46.3448H30.6207Z" fill="#014593"/>
<path d="M27.3104 39.7241H7.44831C6.99066 39.7241 6.62073 40.0941 6.62073 40.5517C6.62073 41.0094 6.99066 41.3793 7.44831 41.3793H27.3104C27.768 41.3793 28.138 41.0094 28.138 40.5517C28.138 40.0941 27.768 39.7241 27.3104 39.7241Z" fill="#014593"/>
<path d="M27.3104 36.4138H7.44831C6.99066 36.4138 6.62073 36.7837 6.62073 37.2414C6.62073 37.699 6.99066 38.069 7.44831 38.069H27.3104C27.768 38.069 28.138 37.699 28.138 37.2414C28.138 36.7837 27.768 36.4138 27.3104 36.4138Z" fill="#014593"/>
<path fill-rule="evenodd" clip-rule="evenodd" d="M6.62073 17.3793C6.62073 11.4472 11.4472 6.62069 17.3793 6.62069C23.3115 6.62069 28.138 11.4472 28.138 17.3793C28.138 23.3114 23.3115 28.1379 17.3793 28.1379C11.4472 28.1379 6.62073 23.3114 6.62073 17.3793ZM21.2591 13.4988C23.16 13.7594 24.8781 14.2171 26.122 14.8659C25.258 11.8659 22.8927 9.50069 19.8919 8.63586C20.5407 9.87972 20.9984 11.5978 21.2591 13.4988ZM21.4345 19.5674C21.4883 18.8458 21.5173 18.1126 21.5173 17.3793C21.5173 16.6461 21.4883 15.9128 21.4345 15.1912C24.725 15.701 26.4828 16.757 26.4828 17.3793C26.4828 18.0017 24.725 19.0577 21.4345 19.5674ZM15.1912 21.4345C15.701 24.725 16.757 26.4828 17.3793 26.4828C18.0017 26.4828 19.0577 24.725 19.5675 21.4345C18.8458 21.4883 18.1126 21.5172 17.3793 21.5172C16.6461 21.5172 15.9129 21.4883 15.1912 21.4345ZM17.3793 19.8621C16.5261 19.8621 15.7349 19.824 14.9959 19.7628C14.9347 19.0237 14.8966 18.2326 14.8966 17.3793C14.8966 16.5261 14.9347 15.7349 14.9959 14.9959C15.7349 14.9346 16.5261 14.8966 17.3793 14.8966C18.2326 14.8966 19.0238 14.9346 19.7628 14.9959C19.824 15.7349 19.8621 16.5261 19.8621 17.3793C19.8621 18.2326 19.824 19.0237 19.7628 19.7628C19.0238 19.824 18.2326 19.8621 17.3793 19.8621ZM13.3242 15.1912C10.0337 15.701 8.2759 16.757 8.2759 17.3793C8.2759 18.0017 10.0337 19.0577 13.3242 19.5674C13.2704 18.8458 13.2414 18.1126 13.2414 17.3793C13.2414 16.6461 13.2704 15.9128 13.3242 15.1912ZM17.3793 8.27586C18.0017 8.27586 19.0577 10.0337 19.5675 13.3241C18.8458 13.2703 18.1126 13.2414 17.3793 13.2414C16.6461 13.2414 15.9129 13.2703 15.1912 13.3241C15.701 10.0337 16.757 8.27586 17.3793 8.27586ZM13.4988 13.4996C13.7595 11.5986 14.2171 9.88055 14.866 8.63669C11.866 9.50069 9.50073 11.8659 8.6359 14.8668C9.87976 14.2179 11.5978 13.7603 13.4988 13.4996ZM8.63673 19.8927C9.88059 20.5415 11.5987 20.9992 13.4996 21.2599C13.7603 23.1608 14.218 24.8789 14.8668 26.1228C11.866 25.2579 9.50073 22.8927 8.63673 19.8927ZM21.2599 21.259C20.9992 23.16 20.5416 24.8781 19.8927 26.1219C22.8927 25.2579 25.258 22.8927 26.1228 19.8919C24.8789 20.5407 23.1609 20.9983 21.2599 21.259Z" fill="#014593"/>
</svg>
