<svg width="20" height="24" viewBox="0 0 20 24" fill="none" xmlns="http://www.w3.org/2000/svg">
<g id="icn-pin">
<path id="poi out" d="M10.0979 23.2509C10.0633 23.2816 10.0307 23.3105 10 23.3375C9.96934 23.3105 9.93669 23.2816 9.90213 23.2509C9.6318 23.0111 9.24475 22.6616 8.77991 22.2248C7.84961 21.3505 6.6108 20.1292 5.37354 18.7387C4.13456 17.3463 2.90702 15.7952 1.99189 14.2613C1.06987 12.7158 0.5 11.2451 0.5 10C0.5 4.75329 4.75329 0.5 10 0.5C15.2467 0.5 19.5 4.75329 19.5 10C19.5 11.2451 18.9301 12.7158 18.0081 14.2613C17.093 15.7952 15.8654 17.3463 14.6265 18.7387C13.3892 20.1292 12.1504 21.3505 11.2201 22.2248C10.7553 22.6616 10.3682 23.0111 10.0979 23.2509Z" stroke="#AB9A88"/>
<path id="poi in" d="M14.5 10C14.5 12.4853 12.4853 14.5 10 14.5C7.51472 14.5 5.5 12.4853 5.5 10C5.5 7.51472 7.51472 5.5 10 5.5C12.4853 5.5 14.5 7.51472 14.5 10Z" stroke="#AB9A88"/>
</g>
</svg>
