<?xml version="1.0" standalone="no"?>
<!DOCTYPE svg PUBLIC "-//W3C//DTD SVG 20010904//EN"
 "http://www.w3.org/TR/2001/REC-SVG-20010904/DTD/svg10.dtd">
<svg version="1.0" xmlns="http://www.w3.org/2000/svg"
 width="1280.000000pt" height="1064.000000pt" viewBox="0 0 1280.000000 1064.000000"
 preserveAspectRatio="xMidYMid meet">
<g transform="translate(0.000000,1064.000000) scale(0.100000,-0.100000)"
fill="#000000" stroke="none">
<path d="M6219 10636 c-2 -2 -76 -9 -164 -16 -859 -60 -1656 -281 -2535 -702
-511 -245 -776 -423 -1075 -723 -253 -252 -443 -510 -584 -795 -138 -278 -211
-516 -240 -782 -8 -67 -11 -1205 -11 -3628 l0 -3530 410 0 410 0 3 3558 2
3557 22 75 c35 123 72 219 128 330 232 462 733 954 1222 1198 156 79 576 240
883 340 1411 459 2501 395 4075 -240 184 -74 277 -120 413 -205 432 -267 836
-693 1037 -1093 56 -111 93 -207 128 -330 l22 -75 2 -3557 3 -3558 410 0 410
0 0 3530 c0 2423 -3 3561 -11 3628 -47 437 -256 905 -585 1317 -113 141 -359
387 -494 494 -154 122 -332 237 -528 341 -905 480 -1857 776 -2702 840 -80 6
-186 15 -237 20 -90 10 -406 14 -414 6z"/>
<path d="M2727 6145 c-88 -33 -173 -123 -196 -207 -9 -32 -11 -742 -9 -2873
l3 -2830 27 -51 c36 -69 105 -127 186 -158 66 -26 72 -26 332 -26 260 0 266 0
332 26 81 31 150 89 186 158 l27 51 6 1440 c5 1269 7 1454 22 1560 9 66 17
121 17 123 0 1 22 2 49 2 l49 0 6 -42 c11 -74 25 -391 32 -726 l7 -322 28 0
c25 0 28 5 38 48 29 137 38 236 51 577 4 127 11 238 15 248 11 26 25 20 32
-13 3 -16 12 -30 19 -30 10 0 14 -13 14 -40 0 -28 4 -40 14 -40 22 0 26 22 33
181 l6 149 -136 0 c-75 0 -138 4 -141 8 -9 14 -37 238 -46 365 -5 67 -14 185
-20 262 -6 77 -13 203 -17 280 -9 190 -18 128 -33 -220 -10 -235 -21 -353 -31
-335 -1 3 -5 505 -8 1115 l-6 1110 -23 47 c-30 60 -90 120 -150 150 -46 22
-55 23 -362 25 -252 2 -323 -1 -353 -12z"/>
<path d="M9355 6132 c-68 -33 -127 -93 -159 -161 l-21 -46 -3 -1225 c-1 -754
-6 -1228 -12 -1234 -16 -16 -27 33 -34 149 -9 155 -17 216 -26 210 -5 -3 -11
-36 -15 -73 -8 -89 -13 -112 -25 -112 -6 0 -16 11 -22 25 -7 16 -19 25 -34 25
-29 0 -30 4 -48 190 -13 129 -37 366 -52 518 -3 30 -8 52 -10 49 -2 -2 -20
-154 -39 -337 -19 -183 -37 -336 -41 -339 -3 -3 -9 -6 -12 -6 -4 0 -18 -11
-31 -24 -21 -21 -26 -38 -33 -130 -5 -58 -12 -140 -16 -181 l-7 -75 -51 -3
c-33 -2 -54 2 -61 10 -5 7 -18 85 -27 173 -19 176 -40 288 -49 265 -3 -8 -12
-112 -19 -230 l-13 -215 -49 0 -49 0 -17 90 c-10 50 -20 131 -24 180 -4 50
-11 93 -15 98 -4 4 -13 -27 -20 -68 -11 -70 -25 -98 -51 -107 -6 -2 -13 -43
-17 -91 -5 -71 -10 -91 -25 -101 -19 -13 -19 -18 -3 -182 9 -93 20 -238 25
-322 10 -167 23 -217 34 -136 16 113 27 131 47 74 19 -52 68 -49 69 5 0 36 21
96 31 90 5 -4 9 -48 10 -98 1 -124 12 -151 27 -63 6 38 13 70 16 73 14 14 25
-15 31 -83 4 -41 9 -73 11 -71 3 2 9 98 14 213 18 373 19 379 37 361 6 -7 12
-59 36 -327 7 -77 16 -134 22 -133 17 3 35 92 60 303 14 113 28 225 32 250 l8
45 135 0 135 0 12 -230 c14 -290 21 -352 40 -370 34 -35 49 6 68 190 16 149
28 203 39 175 3 -8 7 -658 8 -1445 3 -1557 -1 -1440 59 -1531 38 -55 91 -94
168 -121 62 -22 80 -23 326 -23 206 0 269 3 303 15 114 40 178 94 221 184 l26
56 0 2830 0 2830 -26 55 c-34 74 -76 120 -141 156 l-53 29 -320 3 -320 3 -60
-29z"/>
<path d="M1389 5632 c-248 -163 -530 -418 -709 -642 -329 -413 -548 -903 -629
-1410 -62 -385 -63 -532 -9 -925 102 -748 501 -1449 1097 -1929 104 -84 290
-215 349 -245 l22 -12 0 2616 c0 1438 -4 2615 -8 2615 -4 0 -55 -31 -113 -68z"/>
<path d="M11290 3086 l0 -2617 22 12 c39 21 130 81 203 133 681 488 1133 1231
1244 2046 46 340 49 436 21 695 -58 539 -211 974 -494 1405 -220 335 -536 650
-869 867 -54 35 -104 66 -112 70 -13 4 -15 -327 -15 -2611z"/>
<path d="M8072 4485 c-24 -87 -58 -370 -72 -590 -5 -82 -14 -195 -19 -250 -6
-55 -12 -142 -14 -192 l-4 -93 115 0 115 0 -6 111 c-3 61 -10 116 -15 122 -6
7 -15 111 -21 232 -14 258 -48 651 -60 680 -7 17 -10 14 -19 -20z"/>
<path d="M4142 4230 c-13 -91 -30 -271 -38 -400 -8 -129 -22 -258 -30 -286 -8
-28 -14 -81 -14 -117 l0 -67 85 0 84 0 5 -32 c3 -18 8 -55 11 -83 8 -68 35
-150 45 -135 14 23 22 -26 41 -275 10 -137 22 -261 25 -275 l6 -25 15 28 c14
27 16 28 33 12 16 -15 18 -14 23 7 3 13 11 84 17 158 14 167 48 520 56 578 6
37 10 43 28 40 27 -4 35 -46 35 -191 1 -134 20 -392 31 -421 7 -20 8 -20 15 7
7 28 19 35 30 16 4 -6 16 2 29 20 20 27 24 48 30 166 7 143 14 195 26 195 12
0 28 -76 41 -190 22 -196 31 -162 48 167 7 137 12 175 25 188 9 9 16 23 16 31
0 11 16 14 69 14 39 0 73 -4 76 -10 3 -5 10 -29 14 -52 l8 -43 11 28 c13 31
32 36 32 8 0 -11 6 -26 14 -34 9 -9 18 -59 26 -148 15 -173 24 -235 57 -394
32 -153 34 -150 57 97 14 159 28 216 57 233 6 4 15 3 20 -2 10 -10 31 -164 45
-318 9 -108 17 -76 44 190 25 248 28 265 45 265 17 0 25 22 26 78 1 71 11 97
38 100 23 4 24 5 17 85 -4 45 -11 145 -16 222 -9 134 -37 375 -45 383 -8 8
-15 -71 -46 -508 -7 -91 -16 -171 -22 -177 -10 -14 -73 -18 -81 -5 -3 4 -7 66
-10 138 -3 71 -8 190 -11 264 -8 170 -23 291 -39 310 -7 8 -16 24 -20 34 -3
10 -9 17 -11 14 -3 -3 -10 -119 -16 -259 -12 -300 -18 -354 -39 -354 -8 0 -16
7 -17 15 -1 8 -5 42 -9 75 -7 57 -8 53 -20 -83 -6 -79 -14 -145 -17 -148 -18
-18 -26 25 -32 183 -3 98 -15 257 -26 353 -10 96 -19 175 -19 176 0 1 -9 0
-20 -3 -24 -6 -25 -11 -44 -166 -8 -64 -18 -122 -21 -127 -11 -18 -25 -10 -25
15 0 14 -4 25 -10 25 -6 0 -10 -31 -10 -72 0 -39 -7 -113 -15 -162 -8 -50 -18
-122 -22 -161 l-8 -70 -64 -3 c-35 -2 -68 1 -72 5 -5 5 -13 90 -19 188 -10
178 -26 295 -40 295 -4 0 -10 -25 -14 -56 -9 -81 -48 -204 -63 -204 -12 1 -47
82 -49 113 -1 15 -2 51 -3 81 -1 48 -3 54 -20 49 -17 -4 -20 3 -26 64 -17 191
-27 278 -31 282 -2 2 -4 -4 -4 -15 0 -73 -23 -352 -31 -372 -13 -33 -27 -18
-37 39 -8 43 -8 42 -15 -36 -4 -44 -10 -147 -13 -229 -7 -173 -13 -201 -40
-201 -17 0 -20 11 -26 115 -16 247 -41 452 -83 675 -8 44 -15 105 -16 135 -3
131 -14 116 -37 -50z"/>
<path d="M7227 4330 c-4 -30 -11 -118 -17 -195 -20 -282 -63 -741 -71 -762 -8
-20 -15 -23 -68 -23 -46 0 -62 4 -71 18 -10 16 -10 16 -20 0 -9 -14 -25 -18
-75 -18 -78 0 -85 9 -85 107 0 84 -27 403 -34 411 -4 3 -6 0 -6 -6 0 -21 -27
-13 -35 11 -5 13 -12 -62 -17 -178 -5 -110 -13 -204 -19 -210 -17 -17 -27 14
-34 104 -3 47 -9 115 -14 151 l-7 65 -7 -70 c-20 -197 -20 -192 -28 -162 -4
16 -13 121 -19 235 -6 113 -13 216 -16 229 l-6 23 -18 -23 c-10 -12 -25 -39
-33 -60 -9 -20 -23 -37 -31 -37 -9 0 -16 -4 -16 -9 0 -5 -7 -73 -15 -152 -24
-227 -30 -259 -50 -259 -10 0 -17 15 -21 42 -9 53 -19 30 -29 -64 -14 -131
-36 -118 -58 36 -9 60 -18 111 -21 113 -19 19 -66 -154 -66 -242 0 -17 -5 -36
-12 -43 -16 -16 -132 -16 -146 1 -6 6 -13 49 -17 95 -6 59 -11 80 -18 73 -20
-20 -25 -11 -32 57 -12 113 -21 100 -33 -52 -12 -145 -18 -176 -32 -176 -14 0
-19 26 -26 149 -4 67 -11 124 -15 127 -5 3 -9 -8 -9 -24 0 -50 -12 -122 -20
-117 -4 3 -11 26 -14 52 -4 27 -9 62 -13 78 -5 29 -6 29 -14 8 -5 -13 -13 -23
-18 -23 -16 0 -26 28 -51 135 -36 158 -36 159 -45 90 -4 -33 -11 -80 -17 -105
-5 -25 -16 -101 -23 -170 -9 -84 -21 -139 -35 -167 -19 -40 -23 -43 -62 -43
l-41 0 7 -107 c3 -60 9 -175 12 -258 4 -82 10 -159 15 -170 7 -19 8 -19 8 3 1
26 16 29 30 5 13 -25 19 29 31 295 5 123 12 227 15 231 8 13 108 21 174 15 50
-6 62 -10 67 -28 3 -12 15 -31 26 -42 15 -17 23 -55 38 -170 11 -82 20 -152
20 -156 0 -5 9 -8 19 -8 21 0 31 -19 31 -55 0 -14 9 -32 19 -42 10 -10 24 -38
31 -63 6 -25 13 -51 16 -59 3 -8 15 8 30 38 17 34 32 51 44 51 10 0 22 5 26
12 5 8 11 6 20 -6 11 -16 13 -12 18 26 3 23 8 126 11 228 7 245 11 272 39 268
19 -3 22 -13 33 -133 17 -175 17 -177 29 -135 12 41 35 46 44 10 6 -26 20 120
20 212 l0 49 118 -3 117 -3 6 -90 c4 -49 10 -147 14 -217 6 -116 9 -128 26
-128 12 0 21 -9 25 -27 13 -59 18 -55 29 22 6 44 19 102 28 128 9 26 17 60 17
75 0 38 19 102 30 102 25 0 42 -104 55 -330 3 -58 15 -159 25 -225 11 -66 23
-163 28 -215 8 -81 9 -87 11 -37 3 128 23 302 35 312 18 14 24 59 36 274 6
102 13 187 16 190 12 13 22 -28 28 -122 7 -101 16 -155 39 -232 10 -36 13 -20
23 160 7 118 18 223 27 255 9 30 19 67 22 83 l5 27 124 0 124 0 6 -31 c3 -17
6 -47 6 -67 0 -20 7 -40 16 -46 24 -18 32 -80 43 -336 12 -267 20 -345 32
-333 5 5 14 69 20 143 15 182 57 555 66 577 6 15 9 13 14 -12 4 -16 7 -51 8
-76 0 -26 10 -73 20 -107 15 -46 22 -117 32 -316 7 -141 14 -255 15 -253 2 2
8 45 14 96 12 107 18 122 36 96 8 -10 16 -17 18 -14 5 6 26 302 26 370 0 62
18 91 39 65 7 -8 21 -83 32 -168 10 -84 20 -160 22 -168 5 -23 36 119 52 234
7 56 16 154 20 219 l7 117 -69 2 c-37 1 -77 2 -88 2 -15 1 -22 13 -30 51 l-11
50 -10 -50 -9 -50 -62 -3 c-51 -2 -63 0 -71 15 -5 10 -12 81 -16 158 -12 258
-32 365 -70 365 -21 0 -26 -23 -27 -118 -2 -136 -13 -235 -26 -239 -16 -6 -21
30 -29 206 -4 93 -10 148 -15 140 -5 -8 -9 -41 -9 -74 0 -88 -12 -195 -21
-195 -9 0 -12 22 -33 219 -12 105 -19 138 -34 155 -13 13 -24 48 -31 96 -11
67 -24 137 -50 265 l-8 40 -6 -55z"/>
</g>
</svg>
