<svg width="45" height="48" viewBox="0 0 45 48" fill="none" xmlns="http://www.w3.org/2000/svg">
<path d="M43.862 24C43.862 22.1719 42.3798 20.6897 40.5517 20.6897C40.3216 20.6897 40.0973 20.7137 39.8797 20.7583C38.3735 21.0687 37.2413 22.4019 37.2413 24V27.3103H40.4731H43.862V24Z" fill="#FFDFBA"/>
<path d="M12.4138 15.7241V12.4138C12.4138 11.7931 12.2325 11.2179 11.9346 10.7214C11.3561 9.75641 10.3109 9.10345 9.10344 9.10345C7.2753 9.10345 5.79309 10.5857 5.79309 12.4138V15.7241H7.08826H12.4138Z" fill="#FFDFBA"/>
<path d="M4.13794 37.2414V40.5517H10.7586V39.7001V37.2414C10.7586 35.4132 9.27642 33.931 7.44828 33.931C7.02373 33.931 6.62153 34.0179 6.24828 34.1636C5.01518 34.6452 4.13794 35.8378 4.13794 37.2414Z" fill="#FFDFBA"/>
<path fill-rule="evenodd" clip-rule="evenodd" d="M4.13793 16.5517C1.85628 16.5517 0 18.408 0 20.6897V24C0 24.4577 0.370759 24.8276 0.827586 24.8276H3.49738C3.75476 26.8022 4.31421 28.7015 5.16828 30.4966C4.02207 31.2505 3.31034 32.5175 3.31034 33.931V37.2414C3.31034 37.699 3.6811 38.069 4.13793 38.069H10.7586C10.9721 38.069 11.1625 37.9829 11.3098 37.8497C11.7501 38.1633 12.2061 38.4521 12.6703 38.7261L8.6069 46.3448H5.7931C5.33628 46.3448 4.96552 46.7148 4.96552 47.1724C4.96552 47.6301 5.33628 48 5.7931 48H9.10345C9.40883 48 9.68938 47.832 9.83338 47.5622L14.1286 39.5081C15.427 40.1288 16.7967 40.5989 18.2069 40.9117V43.8621C18.2069 44.3197 18.5777 44.6897 19.0345 44.6897H25.6552C26.1128 44.6897 26.4828 44.3197 26.4828 43.8621V40.9117C27.893 40.5989 29.2618 40.1288 30.5603 39.5081L34.8554 47.5622C34.9995 47.832 35.2808 48 35.5862 48H38.8966C39.3542 48 39.7241 47.6301 39.7241 47.1724C39.7241 46.7148 39.3542 46.3448 38.8966 46.3448H36.0828L32.0193 38.7261C32.4836 38.4521 32.9396 38.1625 33.3799 37.8497C33.5263 37.9829 33.7175 38.069 33.931 38.069H40.5517C41.0094 38.069 41.3793 37.699 41.3793 37.2414V33.931C41.3793 32.5175 40.6676 31.2505 39.5214 30.4966C40.3754 28.7015 40.9357 26.8022 41.1923 24.8276H43.8621C44.3197 24.8276 44.6897 24.4577 44.6897 24V20.6897C44.6897 18.408 42.8334 16.5517 40.5517 16.5517C40.5365 16.5517 40.521 16.554 40.5055 16.5563C40.4916 16.5584 40.4777 16.5604 40.464 16.5608C40.0949 15.4014 39.6281 14.2783 39.0439 13.2116C39.4279 13.1404 39.7241 12.8193 39.7241 12.4138V9.10345C39.7241 6.82179 37.8679 4.96552 35.5862 4.96552C34.4185 4.96552 33.3426 5.45545 32.5688 6.2971C30.6836 5.09214 28.6287 4.24303 26.4447 3.76469C26.2527 1.66014 24.4982 0 22.3448 0C20.1914 0 18.437 1.66014 18.245 3.76469C16.061 4.24303 14.0061 5.09131 12.1208 6.2971C11.347 5.45545 10.2712 4.96552 9.10345 4.96552C6.82179 4.96552 4.96552 6.82179 4.96552 9.10345V12.4138C4.96552 12.8193 5.26179 13.1404 5.64579 13.2116C5.06152 14.2783 4.59476 15.4014 4.22483 16.5608C4.21111 16.5604 4.19739 16.5584 4.18367 16.5563C4.16842 16.554 4.15318 16.5517 4.13793 16.5517ZM1.65517 20.6897C1.65517 19.1537 3.09848 17.947 4.64276 18.2582C4.75945 18.2822 4.87034 18.3194 4.98041 18.3592C4.99194 18.3634 5.00399 18.3665 5.01609 18.3697L5.01615 18.3697L5.01621 18.3697L5.01623 18.3697C5.03015 18.3734 5.04412 18.377 5.05738 18.3823C5.07836 18.3907 5.09776 18.4012 5.11722 18.4117L5.11725 18.4118C5.13232 18.4199 5.14742 18.4281 5.16331 18.4353C6.02979 18.8326 6.62069 19.7048 6.62069 20.6897V23.1724H4.21655H1.65517V20.6897ZM4.96552 33.931V36.4138L9.93103 36.3898V33.931C9.93103 32.2643 8.23034 30.9674 6.54869 31.6246C5.58703 31.9994 4.96552 32.9048 4.96552 33.931ZM19.8621 43.0345V40.5526C19.8627 40.5304 19.8661 40.5082 19.8696 40.4855L19.872 40.4698L19.8894 40.3258C20.0061 39.0397 21.0621 38.069 22.3448 38.069C23.6276 38.069 24.6828 39.0397 24.8011 40.3266L24.8276 43.0345H19.8621ZM26.0574 38.7625C26.136 38.928 26.2097 39.0968 26.2668 39.2739C27.4808 38.9934 28.6593 38.5804 29.7823 38.0491L23.5134 26.2941C23.1401 26.405 22.7537 26.4828 22.3448 26.4828C21.936 26.4828 21.5495 26.405 21.1771 26.2932L14.9081 38.0483C16.0303 38.5796 17.2097 38.9926 18.4237 39.2731C18.6414 38.5912 19.0328 37.9986 19.536 37.5269C19.5527 37.5112 19.5705 37.4963 19.5884 37.4812C19.6016 37.4702 19.6149 37.459 19.6279 37.4474C19.7694 37.3217 19.9192 37.2066 20.0772 37.1015C20.1352 37.0634 20.1939 37.027 20.2543 36.9914C20.395 36.9079 20.5415 36.835 20.6921 36.7688L20.7333 36.7507C20.7928 36.7244 20.852 36.6982 20.9139 36.6753C21.0687 36.6182 21.2284 36.5743 21.3914 36.5363C21.4186 36.5299 21.4455 36.5227 21.4723 36.5155L21.4724 36.5154C21.5183 36.5031 21.5641 36.4908 21.6116 36.4825C21.8499 36.4403 22.0941 36.4138 22.3448 36.4138C22.5956 36.4138 22.8389 36.4403 23.0781 36.4817C23.1271 36.4905 23.1746 36.5034 23.222 36.5162C23.2498 36.5237 23.2776 36.5312 23.3057 36.5379C23.4629 36.5752 23.6185 36.6166 23.7683 36.672C23.842 36.6992 23.9126 36.7307 23.9834 36.7623L24.0166 36.7771C24.1514 36.8367 24.2814 36.9012 24.408 36.9749C24.4883 37.0212 24.5661 37.0692 24.6422 37.1206C24.763 37.2017 24.8772 37.2902 24.9881 37.3837C25.0063 37.3993 25.0246 37.4146 25.0428 37.4298C25.0926 37.4715 25.142 37.5129 25.1892 37.5583C25.3034 37.6684 25.4069 37.7868 25.5079 37.9092C25.526 37.9311 25.5448 37.9523 25.5635 37.9735C25.5942 38.0083 25.6249 38.043 25.6527 38.0806C25.7909 38.2676 25.9159 38.4654 26.0218 38.6756C26.0294 38.6904 26.0353 38.7064 26.0413 38.7224C26.0463 38.736 26.0513 38.7496 26.0574 38.7625ZM19.8621 22.3448C19.8621 20.976 20.976 19.8621 22.3448 19.8621C23.7137 19.8621 24.8276 20.976 24.8276 22.3448C24.8276 22.9887 24.5752 23.5705 24.1721 24.0124L23.0756 21.9559C22.7876 21.4163 21.9029 21.4163 21.6149 21.9559L20.5183 24.0124C20.1145 23.5705 19.8621 22.9887 19.8621 22.3448ZM22.6949 24.7929L22.7114 24.7903L22.3448 24.1034L21.9782 24.7903L21.9948 24.7928C22.11 24.8103 22.2248 24.8276 22.3448 24.8276C22.4649 24.8276 22.5796 24.8103 22.6949 24.7929ZM34.7586 36.4138V36.3898V33.931C34.7586 32.2651 36.4568 30.9658 38.141 31.6246C39.1026 31.9994 39.7241 32.9048 39.7241 33.931V36.4138H34.7586ZM43.0345 23.1724V20.6897C43.0345 19.3208 41.9206 18.2069 40.5517 18.2069C40.3837 18.2069 40.2149 18.2243 40.0477 18.2582C39.1879 18.4353 38.5051 19.0543 38.2171 19.848C38.1211 20.1128 38.069 20.3967 38.069 20.6897V23.1724H40.4731H43.0345ZM35.5862 6.62069C36.955 6.62069 38.069 7.73462 38.069 9.10345V11.5862H37.6022H33.1034V9.10345C33.1034 8.664 33.2251 8.23697 33.4659 7.83641C33.9211 7.07503 34.7139 6.62069 35.5862 6.62069ZM22.3448 1.65517C20.976 1.65517 19.8621 2.7691 19.8621 4.13793V4.44331V6.62069H24.8276V4.44331V4.13793C24.8276 2.7691 23.7137 1.65517 22.3448 1.65517ZM18.2069 5.46538V7.44828C18.2069 7.90593 18.5777 8.27586 19.0345 8.27586H25.6552C26.1128 8.27586 26.4828 7.90593 26.4828 7.44828V5.46538C28.3382 5.91724 30.0877 6.66621 31.7023 7.70152C31.6954 7.72064 31.6907 7.74021 31.6861 7.75977C31.6818 7.77745 31.6776 7.79512 31.6717 7.81241C31.6204 7.96386 31.579 8.11614 31.5459 8.2709C31.5429 8.28517 31.5398 8.29941 31.5366 8.31363C31.5351 8.32029 31.5336 8.32696 31.5321 8.33362C31.5228 8.37536 31.5134 8.41711 31.5062 8.45959C31.4714 8.6731 31.4483 8.88828 31.4483 9.10345V12.4138C31.4483 12.8714 31.8182 13.2414 32.2759 13.2414H37.147C37.8596 14.3967 38.4323 15.629 38.8543 16.9159C38.7674 16.9554 38.6856 17.0026 38.6037 17.0499C38.5811 17.0629 38.5585 17.0759 38.5357 17.0888C38.5124 17.102 38.4884 17.1143 38.4645 17.1265C38.43 17.1442 38.3955 17.1618 38.3628 17.1823C38.1807 17.2966 38.0077 17.424 37.8463 17.5639C37.8246 17.5828 37.8046 17.6036 37.7846 17.6245L37.7846 17.6246C37.7688 17.641 37.753 17.6574 37.7363 17.6731C37.6163 17.7857 37.5004 17.9023 37.3945 18.0281C37.3608 18.0679 37.3301 18.1098 37.2994 18.1517C37.284 18.1727 37.2687 18.1937 37.253 18.2143C37.1694 18.3252 37.0899 18.4386 37.0179 18.5578C36.9749 18.629 36.9352 18.7018 36.8963 18.7763C36.8326 18.8979 36.7754 19.0221 36.7241 19.1495L36.7098 19.185L36.7097 19.1852C36.6838 19.2493 36.6579 19.3133 36.6356 19.3796C36.5884 19.5203 36.552 19.6643 36.5197 19.8108C36.5143 19.8349 36.5084 19.8588 36.5026 19.8826L36.5025 19.8827C36.4913 19.9282 36.4802 19.9734 36.4725 20.0201C36.4361 20.2394 36.4138 20.4621 36.4138 20.6897V24C36.4138 24.4577 36.7837 24.8276 37.2414 24.8276H39.5446C39.2938 26.5829 38.7807 28.1379 38.011 29.7931H38.0052C37.8783 29.7931 37.7512 29.7836 37.6239 29.7741C37.4965 29.7646 37.3689 29.755 37.2414 29.755C34.9597 29.755 33.1034 31.6494 33.1034 33.931V35.9942C32.5117 36.461 31.8869 36.883 31.2414 37.267L24.9732 25.5137C25.8869 24.7548 26.4828 23.6234 26.4828 22.3448C26.4828 20.0632 24.6265 18.2069 22.3448 18.2069C20.0632 18.2069 18.2069 20.0632 18.2069 22.3448C18.2069 23.6234 18.8019 24.7539 19.7164 25.5137L13.4483 37.2679C12.8028 36.883 12.1779 36.4618 11.5862 35.995V33.931C11.5862 31.6494 9.72993 29.755 7.44828 29.755C7.32072 29.755 7.19296 29.7646 7.06531 29.7741C6.93786 29.7836 6.81052 29.7931 6.68359 29.7931H6.67697C5.90814 28.1379 5.39421 26.5829 5.14428 24.8276H7.44828C7.9051 24.8276 8.27586 24.4577 8.27586 24V20.6897C8.27586 20.4621 8.25352 20.2394 8.2171 20.021C8.20938 19.9735 8.19798 19.9275 8.18658 19.8816C8.18087 19.8586 8.17517 19.8356 8.16993 19.8124C8.13766 19.6659 8.10124 19.5211 8.05407 19.3804C8.02979 19.3076 8.00106 19.2369 7.97209 19.1657L7.97208 19.1657L7.96717 19.1537C7.91503 19.0246 7.8571 18.8979 7.79255 18.7754C7.75448 18.7034 7.71641 18.6323 7.67421 18.5628C7.60055 18.4403 7.51862 18.3244 7.43255 18.2102C7.42036 18.194 7.40835 18.1776 7.39637 18.1613L7.39634 18.1613C7.36439 18.1179 7.33255 18.0746 7.29766 18.0331C7.18593 17.9007 7.06428 17.7766 6.93683 17.659C6.92297 17.6463 6.91008 17.6327 6.89723 17.6192C6.88092 17.602 6.86468 17.5849 6.84662 17.5697C6.68359 17.4273 6.50814 17.299 6.32359 17.1832C6.29541 17.1658 6.2659 17.1506 6.23641 17.1353L6.23635 17.1353C6.2139 17.1237 6.19147 17.1121 6.16965 17.0996L6.10755 17.0638C6.01846 17.0122 5.92934 16.9607 5.83531 16.9183C6.25821 15.6314 6.83007 14.4 7.54262 13.2439H12.4138C12.8706 13.2439 13.2414 12.8739 13.2414 12.4163V9.10593C13.2414 8.89076 13.2182 8.67641 13.1834 8.4629C13.1754 8.41429 13.1647 8.36659 13.1539 8.31879L13.1429 8.26924C13.1106 8.11779 13.0701 7.968 13.0204 7.81986C13.0141 7.80161 13.0098 7.78278 13.0055 7.76394C13.0009 7.74348 12.9963 7.72299 12.989 7.70317C14.6019 6.66703 16.3514 5.91724 18.2069 5.46538ZM9.10345 6.62069C7.73462 6.62069 6.62069 7.73462 6.62069 9.10345V11.5862H7.08745H11.5862V9.10345C11.5862 8.66317 11.4646 8.23697 11.2246 7.83641C10.7686 7.07503 9.97572 6.62069 9.10345 6.62069Z" fill="#014593"/>
</svg>
